<svg xmlns="http://www.w3.org/2000/svg" width="24" height="24" fill="none" viewBox="0 0 24 24"><path fill="#000" fill-rule="evenodd" d="M17 4.469c0-1.378 1.122-2.5 2.5-2.5S22 3.09 22 4.469c0 .753-.35 1.468-.94 1.94l-.284.228.128.34Q21 7.227 21 7.5c0 .826-.674 1.5-1.5 1.5a1.503 1.503 0 0 1-1.404-2.024l.128-.34-.283-.226A2.5 2.5 0 0 1 17 4.469m2.5-3.5c-1.93 0-3.5 1.57-3.5 3.5a3.5 3.5 0 0 0 1.059 2.494A2.503 2.503 0 0 0 19.5 10a2.503 2.503 0 0 0 2.441-3.037A3.5 3.5 0 0 0 23 4.47c0-1.93-1.57-3.5-3.5-3.5M2 11h20.25v4H2v-4m1 1v2h4v-2zm6 2H8v-2h1zm1 0h8.75v-2H10zm11.25 0h-1.5v-2h1.5z" clip-rule="evenodd"/></svg>