<svg width="24" height="24" viewBox="0 0 24 24" fill="none" xmlns="http://www.w3.org/2000/svg"><path d="M10.012 5.5h9m-9 2h9M8.265 7.421c.145-.277.235-.587.235-.921a2 2 0 1 0-2 2l.017-.002M16.5 10.5H21.5v-8h-19v8h6.005m2.918 0h3.075m-5.122 3.693a1.003 1.003 0 0 0-1.417 1.416l1.063 1.062-.354-.353a1.001 1.001 0 0 0-1.416 1.416s.399.395 2.476 2.472C11.423 21.813 13.5 21.5 13.5 21.5l4.5-5-1.5-5.998c-.155-.597-.448-1.002-1.001-1.002-.553 0-1.001.448-1.001 1.002L14.5 13.5 7.962 7.125A1.001 1.001 0 0 0 6.546 8.54l5.309 5.307-1.771-1.773a1.003 1.003 0 0 0-1.417 1.416l1.77 1.764" stroke="#000"/></svg>