<svg width="36" height="36" viewBox="0 0 36 36" fill="none" xmlns="http://www.w3.org/2000/svg"><path d="M15.018 8.25h13.5m-13.5 3h13.5m-16.12-.118c.217-.416.352-.88.352-1.382a3 3 0 1 0-3 3c.009 0 .017-.003.026-.003m14.972 3.003h7.502v-12H3.75v12h9.008m4.376 0h4.613m-7.684 5.54a1.504 1.504 0 0 0-2.125 0 1.505 1.505 0 0 0 0 2.123l1.594 1.593-.53-.53a1.502 1.502 0 0 0-2.125 2.125s.599.592 3.714 3.708c2.543 2.41 5.659 1.941 5.659 1.941l6.75-7.5-2.25-8.997c-.233-.896-.673-1.503-1.502-1.503-.83 0-1.502.672-1.502 1.503l.003 4.497-9.807-9.563a1.502 1.502 0 0 0-2.124 2.124l7.964 7.96-2.657-2.659a1.504 1.504 0 0 0-2.125 0 1.505 1.505 0 0 0 0 2.124l2.656 2.646" stroke="#000"/></svg>