<svg width="36" height="36" viewBox="0 0 36 36" fill="none" xmlns="http://www.w3.org/2000/svg"><path fill-rule="evenodd" clip-rule="evenodd" d="M6.533 4.804a2.739 2.739 0 0 1 4.319-.837l-.673.74a1.742 1.742 0 0 0-2.86.838l-.148.542-.521-.209A1.749 1.749 0 0 0 4.25 7.5h-1a2.749 2.749 0 0 1 3.283-2.696ZM3.75 10.75h-.5v20.5h28V13.21l-.812.65-6.688 5.35v-6l-.812.65-6.688 5.35v-6l-.812.65-6.688 5.35v-8.46h-5Zm.5 19.5v-18.5h3.5v9.54l.812-.65 6.688-5.35v6l.812-.65 6.688-5.35v6l.812-.65 6.688-5.35v14.96h-26Zm4-6h-.5v2.5h4v-2.5h-3.5Zm.5 1.5v-.5h2v.5h-2Zm6.5-1.5h4v2.5h-4v-2.5Zm1 1v.5h2v-.5h-2Zm7-1h-.5v2.5h4v-2.5h-3.5Zm.5 1.5v-.5h2v.5h-2Zm-10.25-21c-1.09 0-2.024.638-2.467 1.554A2.749 2.749 0 0 0 7.75 9h1a1.749 1.749 0 0 1 2.402-1.623l.521.208.147-.542a1.744 1.744 0 0 1 3.43.456h1c0-1.52-1.23-2.75-2.75-2.75Z" fill="#000"/></svg>