<svg width="24" height="24" viewBox="0 0 24 24" fill="none" xmlns="http://www.w3.org/2000/svg"><path fill-rule="evenodd" clip-rule="evenodd" d="M4.264 3.018a1.995 1.995 0 0 1 3.083-.497l-.673.74a.995.995 0 0 0-1.634.48l-.147.542-.522-.21A1 1 0 0 0 3.001 5H2a2 2 0 0 1 2.263-1.982ZM2.5 7H2v14h19V8.46l-.812.65L16 12.46v-4l-.812.65L11 12.46v-4l-.812.65L6 12.46V7H2.5ZM3 20V8h2v6.54l.812-.65L10 10.54v4l.812-.65L15 10.54v4l.812-.65L20 10.54V20H3Zm2.5-4H5v2h3v-2H5.5Zm4.5 0h3v2h-3v-2Zm5.5 0H15v2h3v-2h-2.5ZM9 3a1.99 1.99 0 0 0-1.736 1.018A2 2 0 0 0 5 6h1a1 1 0 0 1 1.373-.926l.521.208.147-.542A.996.996 0 0 1 10 5h1a2 2 0 0 0-2-2Z" fill="#000"/></svg>