<svg width="24" height="24" viewBox="0 0 24 24" fill="none" xmlns="http://www.w3.org/2000/svg"><path d="M12.002 2.5v12.666M12 14.5v3.25a3.25 3.25 0 1 1-3.25-3.25H12Z" stroke="#000" stroke-linecap="round" stroke-linejoin="round"/><path d="M11.578 14.5H8.594a3.036 3.036 0 0 1-2.127-.869 2.967 2.967 0 0 1-.889-2.098 2.966 2.966 0 0 1 .866-2.108 3.034 3.034 0 0 1 2.117-.892l3.017-.033M15.016 14.5a3 3 0 1 1-.032-6.001 3 3 0 0 1 .032 6.001ZM8.71 2.5h6.603a3.3 3.3 0 0 1 2.25.87 2.89 2.89 0 0 1 .937 2.105c.002.79-.33 1.548-.924 2.109a3.298 3.298 0 0 1-2.245.882L8.728 8.5a3.396 3.396 0 0 1-1.232-.221 3.23 3.23 0 0 1-1.046-.647 2.998 2.998 0 0 1-.701-.973 2.836 2.836 0 0 1-.007-2.303c.16-.365.397-.697.695-.976.299-.28.653-.501 1.043-.652.39-.151.808-.229 1.23-.228Z" stroke="#000" stroke-linecap="round" stroke-linejoin="round"/></svg>