<svg width="24" height="24" viewBox="0 0 24 24" fill="none" xmlns="http://www.w3.org/2000/svg"><path fill-rule="evenodd" clip-rule="evenodd" d="m1.247 12.146-.354.354.354.354 3.535 3.535.354.354.353-.354 3.536-3.535.354-.354-.354-.354-3.536-3.535-.353-.354-.354.354-3.535 3.535Zm3.889 3.182L2.308 12.5l2.828-2.828L7.964 12.5l-2.828 2.828Zm2.475-9.546-.354.354.354.354 3.535 3.535.354.354.354-.354 3.535-3.535.354-.354-.354-.354-3.535-3.535-.354-.354-.354.354-3.535 3.535ZM11.5 8.964 8.67 6.136 11.5 3.308l2.828 2.828L11.5 8.964Zm-4.243 9.9.354-.354 3.535-3.535.354-.354.354.354 3.535 3.535.354.354-.354.354-3.535 3.535-.354.354-.354-.354-3.535-3.535-.354-.354Zm1.414 0 2.829 2.828 2.828-2.828-2.828-2.829-2.829 2.829Zm5.304-6.718-.354.354.354.354 3.535 3.535.354.354.353-.354 3.536-3.535.354-.354-.354-.354-3.536-3.535-.353-.354-.354.354-3.535 3.535Zm3.889 3.182L15.035 12.5l2.829-2.828 2.828 2.828-2.828 2.828Z" fill="#000"/></svg>