<svg width="36" height="36" viewBox="0 0 36 36" fill="none" xmlns="http://www.w3.org/2000/svg"><path fill-rule="evenodd" clip-rule="evenodd" d="m2.047 18.396-.353.354.353.354 5.303 5.303.354.353.354-.353 5.303-5.303.353-.354-.353-.354-5.303-5.303-.354-.353-.354.353-5.303 5.303Zm5.657 4.95L3.108 18.75l4.596-4.596L12.3 18.75l-4.596 4.596Zm3.89-14.495-.354.353.353.354 5.303 5.303.354.353.354-.353 5.303-5.303.353-.354-.353-.354-5.303-5.303-.354-.353-.354.353-5.303 5.304Zm5.656 4.95-4.596-4.597 4.596-4.596 4.596 4.596L17.25 13.8Zm-6.01 14.495.353-.354 5.303-5.303.354-.354.354.354 5.303 5.303.353.354-.353.354-5.303 5.303-.354.353-.354-.353-5.303-5.304-.354-.353Zm1.414 0 4.596 4.596 4.596-4.596L17.25 23.7l-4.596 4.596Zm8.485-9.9-.354.354.354.354 5.303 5.303.354.353.353-.353 5.304-5.303.353-.354-.353-.354-5.304-5.303-.353-.353-.354.353-5.303 5.303Zm5.657 4.95L22.2 18.75l4.596-4.596 4.596 4.596-4.596 4.596Z" fill="#000"/></svg>