<svg width="36" height="36" viewBox="0 0 36 36" fill="none" xmlns="http://www.w3.org/2000/svg"><path d="M18.004 3.75v19M18 21.75v4.875a4.875 4.875 0 1 1-4.875-4.875H18Z" stroke="#000" stroke-linecap="round" stroke-linejoin="round"/><path d="M17.368 21.75H12.89a4.553 4.553 0 0 1-3.19-1.303A4.45 4.45 0 0 1 8.368 17.3a4.45 4.45 0 0 1 1.298-3.162A4.552 4.552 0 0 1 12.84 12.8l4.527-.05M22.525 21.75a4.5 4.5 0 1 1-.05-9 4.5 4.5 0 0 1 .05 9ZM13.065 3.75h9.905c1.265 0 2.479.47 3.375 1.306.896.836 1.402 1.971 1.405 3.156.003 1.185-.495 2.323-1.386 3.164a4.946 4.946 0 0 1-3.368 1.323l-9.905.05a5.093 5.093 0 0 1-1.847-.331 4.844 4.844 0 0 1-1.57-.97 4.496 4.496 0 0 1-1.051-1.46 4.253 4.253 0 0 1-.373-1.726 4.251 4.251 0 0 1 .363-1.727A4.492 4.492 0 0 1 9.656 5.07a4.84 4.84 0 0 1 1.564-.979 5.093 5.093 0 0 1 1.845-.341Z" stroke="#000" stroke-linecap="round" stroke-linejoin="round"/></svg>