<svg width="24" height="24" viewBox="0 0 24 24" fill="none" xmlns="http://www.w3.org/2000/svg"><path fill-rule="evenodd" clip-rule="evenodd" d="M3 11.5a8.5 8.5 0 1 1 17 0 8.5 8.5 0 0 1-17 0Zm15.985-.471a7.456 7.456 0 0 0-.835-3h-1.461c.242.946.387 1.954.42 3h1.876Zm-2.876 0a12.863 12.863 0 0 0-.455-3H12v3h4.109Zm-5.109 0H6.89c.037-1.058.196-2.067.456-3H11v3Zm1-4h3.327a10.065 10.065 0 0 0-1.038-2.033 8.48 8.48 0 0 0-.463-.628A7.471 7.471 0 0 0 12 4.017v3.012Zm-1-3.012v3.012H7.673c.28-.739.627-1.417 1.027-2.017l.026-.039c.143-.212.293-.414.449-.605A7.47 7.47 0 0 1 11 4.017Zm0 8.012v3H7.362a12.823 12.823 0 0 1-.47-3H11Zm1 3v-3h4.107a12.825 12.825 0 0 1-.47 3H12Zm-1 1H7.695c.28.724.623 1.388 1.017 1.977a8.5 8.5 0 0 0 .463.627c.58.189 1.192.31 1.825.35V16.03Zm1 2.955v-2.955h3.305a10.066 10.066 0 0 1-1.048 2.023 8.445 8.445 0 0 1-.431.58 7.47 7.47 0 0 1-1.826.352Zm5.107-6.955a13.923 13.923 0 0 1-.433 3h1.445a7.453 7.453 0 0 0 .863-3h-1.875Zm-.737 4c-.218.623-.48 1.212-.78 1.76a7.54 7.54 0 0 0 1.889-1.76h-1.11Zm.02-9h1.132a7.542 7.542 0 0 0-1.932-1.817c.31.564.578 1.173.8 1.817Zm-10.5 4c.034-1.046.18-2.054.42-3H4.85a7.455 7.455 0 0 0-.835 3H5.89Zm.72-4c.222-.644.49-1.253.8-1.817A7.542 7.542 0 0 0 5.479 7.03H6.61Zm-.718 5c.038 1.046.188 2.054.434 3H4.88a7.454 7.454 0 0 1-.862-3h1.874Zm.738 4H5.521a7.542 7.542 0 0 0 1.89 1.76c-.3-.548-.563-1.137-.781-1.76Z" fill="#000"/></svg>