<svg xmlns="http://www.w3.org/2000/svg" width="24" height="24" fill="none" viewBox="0 0 24 24"><path fill="#000" d="m14.354 20.647-.707.707-2.147-2.147-2.146 2.146-.708-.707 2.854-2.853zM11.5 8a4.5 4.5 0 1 1 0 9 4.5 4.5 0 0 1 0-9m-1.085 5c.045.85.2 1.596.418 2.143.13.326.274.558.407.699s.22.158.26.158.127-.018.26-.158.276-.373.407-.7c.219-.546.373-1.292.418-2.142zm-2.379 0a3.5 3.5 0 0 0 1.925 2.644q-.03-.063-.057-.13c-.272-.68-.445-1.556-.49-2.514zm5.55 0c-.045.958-.218 1.835-.49 2.515q-.029.065-.058.129A3.5 3.5 0 0 0 14.964 13zm-7.379-.5-2.853 2.854-.708-.707L4.793 12.5l-2.147-2.146.708-.708zm14.147-2.146L18.207 12.5l2.146 2.146-.707.707-2.853-2.853 2.854-2.854zM9.96 9.355A3.5 3.5 0 0 0 8.036 12h1.377c.046-.958.22-1.835.491-2.515q.028-.066.057-.13M11.5 9c-.04 0-.127.018-.26.158s-.276.373-.407.7c-.219.546-.373 1.292-.418 2.142h2.17c-.045-.85-.2-1.596-.418-2.143-.13-.326-.274-.558-.407-.699S11.54 9 11.5 9m1.596.485c.272.68.445 1.557.49 2.515h1.378a3.5 3.5 0 0 0-1.926-2.645q.03.065.058.13m1.258-5.131L11.5 7.207 8.646 4.354l.708-.708L11.5 5.793l2.146-2.147z"/></svg>