<svg xmlns="http://www.w3.org/2000/svg" width="36" height="36" fill="none" viewBox="0 0 36 36"><path fill="#000" d="m21.354 31.147-.707.707-3.397-3.397-3.396 3.396-.707-.707 4.103-4.103zM17.25 12.25a6.5 6.5 0 1 1 0 13 6.5 6.5 0 0 1 0-13m-1.89 7c.048 1.406.295 2.65.658 3.557.203.507.432.885.66 1.128.229.24.422.315.572.315s.343-.074.571-.315c.23-.243.458-.62.661-1.128.363-.907.61-2.151.658-3.557zm-3.587 0a5.5 5.5 0 0 0 3.688 4.7 6 6 0 0 1-.372-.771c-.418-1.044-.681-2.42-.73-3.929zm8.368 0c-.049 1.51-.312 2.885-.73 3.929a6 6 0 0 1-.373.771 5.5 5.5 0 0 0 3.689-4.7zm-11.184-.5-4.103 4.104-.708-.707 3.397-3.397-3.397-3.396.708-.707zm21.397-3.396-3.397 3.396 3.396 3.396-.707.707-4.103-4.103 4.104-4.103zM15.46 13.549a5.5 5.5 0 0 0-3.688 4.701h2.586c.049-1.51.312-2.885.73-3.929.11-.277.235-.537.372-.772m1.789-.299c-.15 0-.343.074-.571.315-.23.243-.458.62-.661 1.128-.363.907-.61 2.152-.658 3.557h3.78c-.048-1.405-.295-2.65-.658-3.557-.203-.507-.432-.885-.66-1.128-.229-.24-.422-.315-.572-.315m1.788.299c.137.235.262.495.373.772.418 1.044.681 2.42.73 3.929h2.586a5.5 5.5 0 0 0-3.689-4.701m2.316-7.195-4.104 4.103-4.103-4.103.707-.708 3.396 3.397 3.396-3.397z"/></svg>