<svg width="36" height="36" viewBox="0 0 36 36" fill="none" xmlns="http://www.w3.org/2000/svg"><path fill-rule="evenodd" clip-rule="evenodd" d="M4.75 17.25c0-6.903 5.597-12.5 12.5-12.5s12.5 5.597 12.5 12.5-5.597 12.5-12.5 12.5-12.5-5.597-12.5-12.5Zm23.991-.456a11.437 11.437 0 0 0-1.366-5H24.71c.427 1.562.675 3.245.712 5h3.32Zm-4.32 0a19.563 19.563 0 0 0-.751-5h-5.92v5h6.67Zm-7.671 0h-6.671c.039-1.77.303-3.455.75-5h5.921v5Zm1-6h5.598a15.518 15.518 0 0 0-1.692-3.418 12.9 12.9 0 0 0-.77-1.039c-.992-.33-2.044-.53-3.136-.576v5.032Zm-1-5.033v5.032h-5.598a15.523 15.523 0 0 1 1.699-3.426c.242-.362.497-.706.764-1.03.992-.33 2.044-.53 3.135-.576Zm0 12.033v5h-5.895a19.497 19.497 0 0 1-.774-5h6.669Zm1 5v-5h6.668a19.506 19.506 0 0 1-.773 5H17.75Zm-1 1h-5.567a15.494 15.494 0 0 0 1.663 3.332c.243.365.5.711.768 1.038.992.33 2.045.529 3.136.576v-4.946Zm1 4.946v-4.946h5.567a15.462 15.462 0 0 1-1.69 3.373c-.235.35-.482.682-.74.996-.993.33-2.045.53-3.137.577Zm7.669-10.946a20.6 20.6 0 0 1-.734 5h2.643a11.434 11.434 0 0 0 1.41-5h-3.32Zm-1.042 6a16.785 16.785 0 0 1-1.703 3.6 11.557 11.557 0 0 0 4.034-3.6h-2.331Zm.029-13h2.361a11.556 11.556 0 0 0-4.093-3.687 16.818 16.818 0 0 1 1.732 3.686Zm-15.327 6c.036-1.755.285-3.438.712-5H7.125a11.437 11.437 0 0 0-1.366 5h3.32Zm1.015-6a16.821 16.821 0 0 1 1.733-3.687 11.557 11.557 0 0 0-4.094 3.686h2.361Zm-1.013 7c.043 1.755.3 3.438.734 5H7.172a11.434 11.434 0 0 1-1.41-5h3.319Zm1.042 6H7.792a11.556 11.556 0 0 0 4.035 3.6 16.798 16.798 0 0 1-1.704-3.6Z" fill="#000"/></svg>