<svg width="24" height="24" viewBox="0 0 24 24" fill="none" xmlns="http://www.w3.org/2000/svg"><path d="m13.552 12.862 2.806-2.805a3.488 3.488 0 0 0 4.127-.593 3.489 3.489 0 0 0 .593-4.127L18.364 8.05 16.95 6.636l2.713-2.713a3.489 3.489 0 0 0-4.127.592 3.489 3.489 0 0 0-.593 4.127l-2.805 2.806m1.414 1.414-1.414 1.414m1.414-1.414 5.384 5.384-1.414 1.414-5.384-5.384m0-2.828L8.865 8.175 7.451 9.589l3.273 3.273m1.414-1.414-1.414 1.414m0 0L5.346 18.24l1.414 1.414 5.378-5.378M9.572 7.468l-2.828 2.828-.707-.707-.707 2.121L2.5 8.882l2.122-.707-.707-.707 3.182-3.182c1.767-1.768 3.535 0 3.535 0L8.512 6.407l1.06 1.06Z" stroke="#1D1D1B" stroke-miterlimit="10"/></svg>