<svg width="36" height="36" viewBox="0 0 36 36" fill="none" xmlns="http://www.w3.org/2000/svg"><path d="m20.329 19.293 4.207-4.208c1.989 1.071 4.513.79 6.192-.888 1.679-1.68 1.96-4.204.888-6.192l-4.07 4.07-2.121-2.121 4.07-4.07c-1.989-1.071-4.513-.791-6.192.888-1.679 1.68-1.96 4.203-.888 6.192l-4.208 4.207m2.122 2.122-2.122 2.121m2.122-2.121 8.075 8.076-2.12 2.12-8.077-8.075m0-4.243-4.909-4.909-2.121 2.121 4.909 4.91m2.121-2.122-2.121 2.122m0 0L8.019 27.36l2.121 2.121 8.067-8.067M14.36 11.201l-4.243 4.243-1.06-1.06-1.061 3.181-4.243-4.242 3.182-1.06-1.06-1.062 4.772-4.772c2.652-2.652 5.304 0 5.304 0L12.768 9.61l1.59 1.59Z" stroke="#000" stroke-miterlimit="10"/></svg>