<svg width="36" height="36" viewBox="0 0 36 36" fill="none" xmlns="http://www.w3.org/2000/svg"><g clip-path="url(#a)"><path fill-rule="evenodd" clip-rule="evenodd" d="M17.75 19.5V6.75c0-.549.452-1 1-1 .55 0 1 .451 1 1V19.5h1V8.25c0-.549.452-1 1-1 .55 0 1 .451 1 1V19.5h1v-6.779c.016-.536.46-.971 1-.971.549 0 1 .451 1 1V24c0 2.147-.365 3.782-.725 4.872a9.866 9.866 0 0 1-.567 1.378h-9.923l-.075-.127-.584-.988-1.803-3.053c-1.335-2.26-2.724-4.614-2.954-5.016-.214-.373-.318-.678-.328-.921a.76.76 0 0 1 .248-.606c.39-.39 1.033-.39 1.422 0l3.435 3.435.854.853V8.25c0-.549.451-1 1-1 .549 0 1 .451 1 1V19.5h1Zm6-8.481a1.985 1.985 0 0 1 1-.269c1.101 0 2 .899 2 2V24c0 2.263-.385 4.003-.775 5.186-.195.59-.391 1.042-.541 1.349a6.612 6.612 0 0 1-.239.446l-.016.026-.005.008-.002.003v.001l-.422-.269.421.27-.148.23H13.965l-.145-.245.43-.255-.43.254-.001-.001-.003-.005-.011-.018-.043-.073-.162-.275-.585-.988-1.804-3.053a1241.697 1241.697 0 0 1-2.96-5.027c-.25-.437-.44-.905-.46-1.377-.02-.498.149-.964.54-1.356.78-.78 2.057-.78 2.838 0l2.581 2.582V8.25c0-1.101.899-2 2-2 .37 0 .715.101 1.013.277A2.005 2.005 0 0 1 18.75 4.75c1.026 0 1.876.78 1.988 1.777a1.985 1.985 0 0 1 1.012-.277c1.102 0 2 .899 2 2v2.769Z" fill="#000"/></g><defs><clipPath id="a"><path fill="#fff" d="M0 0h36v36H0z"/></clipPath></defs></svg>