<svg width="36" height="36" viewBox="0 0 36 36" fill="none" xmlns="http://www.w3.org/2000/svg"><path fill-rule="evenodd" clip-rule="evenodd" d="m29.134 8.013-1.1-1.057a4.96 4.96 0 0 0-7.025.003l.345.345-.345-.345-.001.002-.005.005-.02.02-.074.073-.276.277-.936.936-2.399 2.4.708.707 2.398-2.4.936-.936.276-.277.075-.074.019-.02.005-.004.001-.001a3.96 3.96 0 0 1 5.614 0l.007.006 1.1 1.057a3.967 3.967 0 0 1 .006 5.616l-.001.001-6.372 6.4a4.011 4.011 0 0 1-5.656 0l-1.06-1.06-.708.707 1.06 1.06c1.947 1.946 5.127 1.946 7.071 0l6.373-6.4a4.967 4.967 0 0 0-.008-7.034l-.008-.007Zm-9.94 6.98a5.016 5.016 0 0 0-7.071 0L5.76 21.359a5.013 5.013 0 0 0 0 7.072l1.06 1.06c1.946 1.944 5.126 1.945 7.07 0l3.72-3.72-.707-.707-3.72 3.72a4.014 4.014 0 0 1-5.656 0l-1.06-1.06a4.013 4.013 0 0 1 0-5.658l6.363-6.364a4.016 4.016 0 0 1 5.657 0l1.06 1.062.708-.707-1.06-1.062Z" fill="#000"/></svg>