<svg width="24" height="24" viewBox="0 0 24 24" fill="none" xmlns="http://www.w3.org/2000/svg"><path fill-rule="evenodd" clip-rule="evenodd" d="M7.308 6.41C8.115 6.175 8.902 6 9.5 6c1.128 0 1.814.272 2.255.597a2.4 2.4 0 0 1 .245.207 2.4 2.4 0 0 1 .245-.207C12.686 6.272 13.372 6 14.5 6c.598 0 1.386.174 2.193.41.82.24 1.706.558 2.52.874a58.083 58.083 0 0 1 2.933 1.233l.047.021.012.006.004.001L22 9l.21-.454.8.37-.727.496L22 9c.283.412.282.412.282.413l-.005.003-.013.01-.052.035-.2.132a49.029 49.029 0 0 1-3.196 1.934c-1.78.984-4.007 2.052-5.816 2.37v.189a1.5 1.5 0 0 1 1.947 1.02 1.5 1.5 0 0 1 2 1A1.5 1.5 0 0 1 19 17.5L19.002 21h-1v-3.5a.5.5 0 0 0-1 0V20h-1v-3.5a.5.5 0 0 0-1 0V19h-1v-3.5a.5.5 0 1 0-1 0V18h-1v-7.5a.5.5 0 1 0-1 0V19h-1v-1.5a.5.5 0 1 0-1 0V21H8v-3.5a1.5 1.5 0 0 1 2-1.414v-2.42c-1.76-.51-3.757-1.528-5.33-2.425a50.116 50.116 0 0 1-2.893-1.788l-.044-.03-.011-.008-.003-.002h-.001L2 9l-.21-.454h.002l.003-.002.012-.006.047-.021a36.618 36.618 0 0 1 .826-.366 58.043 58.043 0 0 1 2.107-.867c.814-.316 1.7-.633 2.52-.873ZM2 9l-.282.412-.727-.497.8-.37L2 9Zm16.852-.784c.55.213 1.07.426 1.515.614-.433.083-.942.176-1.507.27-1.711.284-3.923.575-6.07.635a1.5 1.5 0 0 0-2.555-.042c-1.993-.115-3.967-.397-5.474-.657a59.562 59.562 0 0 1-1.128-.206c.446-.188.965-.4 1.515-.614.8-.31 1.658-.617 2.44-.846C8.383 7.138 9.055 7 9.5 7c.958 0 1.425.228 1.663.403.123.09.205.181.278.266l.012.015c.031.036.079.092.125.135v.001c.04.037.19.18.422.18a.614.614 0 0 0 .422-.18c.046-.044.094-.1.125-.136l.012-.015c.073-.085.155-.175.279-.266.237-.175.704-.403 1.662-.403.446 0 1.117.138 1.912.37.782.23 1.64.536 2.44.846ZM4.55 10.014c.197.117.403.236.616.358 1.476.842 3.263 1.75 4.834 2.248v-1.94c-1.984-.123-3.926-.402-5.41-.659a5.145 5.145 0 0 1-.04-.007ZM13 12.88v-2.15c2.153-.073 4.338-.362 6.023-.642l.425-.072c-.347.205-.722.42-1.115.637-1.73.956-3.743 1.908-5.333 2.227Z" fill="#000"/></svg>