<svg width="36" height="36" fill="none" xmlns="http://www.w3.org/2000/svg"><path fill-rule="evenodd" clip-rule="evenodd" d="M11.032 9.856c1.207-.353 2.36-.606 3.218-.606 1.65 0 2.623.397 3.235.847.226.166.392.332.515.468.123-.136.29-.302.515-.468.612-.45 1.585-.847 3.235-.847.859 0 2.011.253 3.219.606 1.22.357 2.543.831 3.76 1.303a86.787 86.787 0 0 1 4.387 1.844l.07.032.017.008.005.002h.001L33 13.5l.21-.453.8.369-.727.497L33 13.5l.281.412-.001.002-.006.003-.02.014-.077.053-.297.197a73.356 73.356 0 0 1-4.777 2.891c-2.742 1.516-6.155 3.142-8.854 3.56v.886a2 2 0 0 1 2.988 1.508 2 2 0 0 1 3 1.5 2 2 0 0 1 3.013 1.725V31.5h-1v-5.25a1 1 0 0 0-2 0V30h-1v-5.25a1 1 0 0 0-2 0l-.001 3.75h-1v-5.25a1 1 0 0 0-2-.002V27h-1V15.75a1 1 0 1 0-2 0V28.5h-1v-2.25a1 1 0 1 0-2 0v5.25h-1v-5.25a2 2 0 0 1 3-1.732v-4.21c-2.651-.736-5.71-2.288-8.121-3.664a74.786 74.786 0 0 1-4.076-2.507 39.334 39.334 0 0 1-.248-.165l-.065-.044-.016-.012-.005-.002-.001-.001L3 13.5l-.21-.454h.002l.005-.003.018-.008.07-.032.265-.12a86.847 86.847 0 0 1 4.12-1.724c1.218-.472 2.541-.946 3.762-1.303ZM3 13.5l-.282.412-.727-.497.8-.37.21.455Zm25.368-1.409a85.54 85.54 0 0 1 3.025 1.243c-.783.158-1.835.36-3.063.563-2.612.434-6.006.878-9.29.96a2 2 0 0 0-3.55-.059c-3.054-.168-6.088-.6-8.391-.998a87.543 87.543 0 0 1-2.492-.467 85.514 85.514 0 0 1 3.025-1.242c1.204-.466 2.498-.93 3.68-1.275 1.196-.35 2.232-.566 2.938-.566 1.48 0 2.235.352 2.642.652.209.154.346.307.46.44l.02.022c.047.056.108.128.167.184.052.05.215.202.461.202.247 0 .41-.152.462-.202.058-.056.12-.128.167-.184l.02-.023c.113-.132.25-.285.459-.438.408-.3 1.162-.653 2.642-.653.706 0 1.742.216 2.938.566 1.182.346 2.476.809 3.68 1.275ZM5.532 14.533c.612.377 1.32.802 2.092 1.242 2.318 1.322 5.164 2.764 7.626 3.493v-3.482c-3.044-.178-6.043-.607-8.321-1-.503-.087-.971-.172-1.397-.253ZM19.25 19.62v-3.768c3.291-.094 6.658-.538 9.244-.967.724-.12 1.387-.24 1.972-.35a70.97 70.97 0 0 1-2.846 1.663c-2.697 1.491-5.895 2.999-8.37 3.422Zm-1.477-8.796a.1.1 0 0 1 .002-.002l-.002.002Zm.452-.002c.012.009.013.012.002.002l-.002-.002Z" fill="#000"/></svg>