<svg class="color-immutable" xmlns="http://www.w3.org/2000/svg" width="85" height="7" fill="none" viewBox="0 0 85 7"><g clip-path="url(#a)"><path fill="#000" fill-rule="evenodd" d="M24.454 0q.87 0 1.56.3c.46.2.84.5 1.14.88l-1.14 1.02c-.22-.24-.44-.42-.68-.54s-.56-.18-.82-.18q-.39 0-.72.12c-.165.06-.307.142-.436.247l-.124.092c-.16.16-.279.36-.359.58-.1.22-.14.46-.14.74s.06.52.14.74c.08.24.2.42.36.58s.34.28.559.36.42.12.72.12.58-.06.82-.18c.26-.12.48-.3.68-.54l1.14 1.02c-.3.38-.68.68-1.14.88-.46.22-1.06.32-1.56.32q-.75 0-1.38-.24c-.42-.16-.8-.38-1.1-.68s-.54-.64-.72-1.04-.259-.84-.259-1.32.08-.92.26-1.319c.16-.4.42-.74.72-1.04.32-.3.68-.52 1.1-.68s.8-.24 1.38-.24m7.479 0q.87 0 1.56.3c.459.2.839.5 1.139.88l-1.14 1.02c-.22-.24-.44-.42-.68-.54s-.56-.18-.82-.18q-.39 0-.72.12-.245.09-.435.247l-.124.092c-.16.16-.28.36-.36.58-.1.22-.14.46-.14.74s.06.52.14.74c.08.24.2.42.36.58s.34.28.56.36.42.12.72.12.58-.06.82-.18c.26-.12.48-.3.68-.54l1.139 1.02c-.3.38-.68.68-1.14.88-.46.22-1.06.32-1.56.32q-.75 0-1.38-.24c-.42-.16-.799-.38-1.099-.68s-.54-.64-.72-1.04-.26-.84-.26-1.32.08-.92.26-1.319c.16-.4.42-.74.72-1.04.32-.3.68-.52 1.1-.68s.8-.24 1.38-.24m34.851.02c.42 0 .82.04 1.22.14.4.08.74.22 1.06.4l-.54 1.32q-.45-.24-.9-.36c-.3-.08-.6-.12-.86-.12s-.46.02-.6.08c-.14.04-.26.12-.32.2s-.1.16-.1.28.08.24.2.32c.14.08.3.14.52.2s.44.1.7.16c.24.06.5.12.76.2s.5.18.7.32.38.32.5.54c.14.22.2.44.2.82s-.12.72-.32 1.02c-.2.299-.5.56-.92.74s-1.06.279-1.56.279-1-.08-1.48-.2c-.479-.12-.86-.3-1.16-.5l.58-1.32c.28.18.62.32.98.44s.84.18 1.1.18c.195 0 .345-.011.475-.034l.145-.025c.14-.04.26-.101.32-.181.06-.06.1-.12.1-.26s-.06-.26-.2-.34-.32-.14-.52-.2c-.22-.06-.44-.1-.7-.159-.26-.04-.5-.12-.76-.2s-.499-.18-.699-.32c-.22-.14-.38-.32-.52-.54s-.2-.46-.2-.84.12-.72.32-1.02c.22-.3.54-.56.94-.74s.92-.28 1.54-.28m7.099 0c.42 0 .82.04 1.22.14.4.08.74.22 1.06.4l-.54 1.32q-.45-.24-.9-.36c-.3-.08-.6-.12-.86-.12s-.44.02-.6.08c-.14.04-.26.12-.32.2s-.1.16-.1.28.08.24.2.32c.14.08.3.14.52.2s.44.1.7.16c.24.06.5.12.76.2s.499.18.699.32.38.32.5.54c.14.22.2.44.2.82s-.12.72-.32 1.02c-.2.299-.5.56-.92.74s-1.06.279-1.559.279c-.5 0-1-.08-1.48-.2s-.86-.3-1.16-.5l.58-1.32c.28.18.62.32.98.44s.84.18 1.1.18c.195 0 .345-.011.475-.034l.145-.025c.14-.04.26-.101.319-.181.06-.06.1-.12.1-.26s-.06-.26-.2-.34-.32-.14-.52-.2c-.219-.06-.44-.1-.7-.159-.26-.04-.5-.12-.76-.2a2.5 2.5 0 0 1-.7-.32c-.22-.14-.379-.32-.519-.54s-.2-.46-.2-.84.12-.72.32-1.02c.22-.3.54-.56.94-.74s.92-.28 1.54-.28m-14.957 0c.52 0 .98.08 1.4.24s.78.38 1.1.68.56.64.739 1.04c.18.4.26.84.26 1.3s-.08.9-.26 1.3c-.18.399-.42.74-.74 1.04-.3.3-.68.519-1.1.679s-.9.24-1.4.24-.979-.08-1.399-.24a3.18 3.18 0 0 1-1.859-1.72c-.18-.4-.26-.84-.26-1.3s.08-.9.26-1.3.42-.739.74-1.039c.32-.28.7-.52 1.12-.68.44-.16.879-.24 1.399-.24M9.638.14c.56 0 1.06.1 1.48.28.4.18.74.44.96.8.22.34.339.78.339 1.24 0 .402-.092.774-.262 1.088l-.058.151c-.22.32-.52.58-.9.76l1.36 1.98h-1.9l-1.14-1.68h-.979v1.68h-1.78V.14zm41.55 0c.56 0 1.06.1 1.48.28.4.18.74.44.959.8.22.34.34.78.34 1.24 0 .402-.092.774-.262 1.088l-.057.151c-.22.32-.521.58-.9.76l1.36 1.98h-1.9l-1.14-1.68h-.98v1.68h-1.78V.14zM4.938 1.5H1.78v1.38h2.78v1.38h-2.78v2.159H0V.12h4.938zm14.377 0h-3.18v1.08h2.8V3.9h-2.8v1.14h3.3v1.379h-5.058V.12h4.938zm18.816 4.919h-1.78V.12h1.78zm8.678 0h-1.86l-.48-1.2H41.79l-.48 1.2h-1.82L42.25.12h1.76zM82.2.12 85 6.418h-1.86l-.48-1.2h-2.7l-.479 1.2h-1.82L80.441.12zM58.946 1.5c-.24 0-.48.04-.68.12q-.3.12-.54.36c-.16.16-.28.34-.36.56-.1.22-.14.46-.14.74s.06.52.14.74c.08.24.2.42.36.58q.24.24.54.359c.22.08.44.12.68.12s.48-.04.68-.12q.3-.12.54-.36c.16-.16.28-.36.36-.58.1-.22.14-.46.14-.74s-.06-.52-.14-.739a1.5 1.5 0 0 0-.36-.56q-.24-.24-.54-.36c-.22-.08-.44-.12-.68-.12M42.33 3.898h1.64l-.82-2.039zm38.19 0h1.64l-.82-2.039zM8.498 3.36h1q.57 0 .84-.24c.18-.16.28-.4.28-.68s-.1-.52-.28-.68c-.2-.16-.46-.24-.84-.24h-1zm41.57 0h.98q.57 0 .84-.24c.18-.16.28-.4.28-.68s-.1-.52-.28-.68c-.2-.16-.46-.24-.84-.24h-.98z" clip-rule="evenodd"/></g><defs><clipPath id="a"><path fill="#fff" d="M0 0h85v6.56H0z"/></clipPath></defs></svg>