<svg class="color-immutable" xmlns="http://www.w3.org/2000/svg" width="15" height="9" fill="none" viewBox="0 0 15 9"><g clip-path="url(#a)"><path fill="#000" d="M6.157 2.087c.82 0 1.315.295 1.525.831l.609 1.561.868-2.392h1.484L8.26 7.964l-.309.787c-.59-.27-1.097-.995-.799-1.77l.335-.863-1.812-4.031zm6.507-.077C13.955 2.01 15 3.04 15 4.317s-1.047 2.31-2.336 2.31-2.333-1.035-2.333-2.31c0-1.274 1.045-2.307 2.333-2.307M1.651 6.57H.1v-3.25c0-.69.35-1.234 1.552-1.234zm2.261-3.918c.28-.31.762-.577 1.465-.569V3.44H3.912v3.128H2.36V2.084h1.553zm8.752.59c-.601 0-1.089.483-1.089 1.077 0 .595.488 1.076 1.09 1.076.6 0 1.088-.481 1.088-1.076s-.488-1.077-1.089-1.077M.89 0c.49 0 .888.393.888.88a.884.884 0 0 1-.888.879.884.884 0 0 1-.89-.88C0 .396.4 0 .89 0"/></g><defs><clipPath id="a"><path fill="#fff" d="M0 0h15v8.75H0z"/></clipPath></defs></svg>