<svg class="color-immutable" xmlns="http://www.w3.org/2000/svg" width="80" height="10" fill="none" viewBox="0 0 80 10"><g clip-path="url(#a)"><path fill="#fff" fill-rule="evenodd" d="M39.75 3.179h1.128l.042-1.339zm2.716 2.635h-1.714l.042-1.297H38.58l-1.087 1.297h-1.797L40.92.042h1.546zm-7.774 0h-1.714L35.611.042h1.714zm-.962-4.517H31.6q-.753 0-1.254.502c-.293.25-.543.669-.794 1.17a4 4 0 0 0-.21.503c-.083.209-.125.418-.125.543 0 .335.251.502.794.502h2.3l-.628 1.297H29.51c-.92 0-1.505-.251-1.84-.711-.166-.21-.208-.46-.208-.795q0-.564.376-1.38C28.715 1.004 30.094 0 32.017 0h2.299zm-5.893 0h-2.132q-.752 0-1.254.502c-.292.25-.543.669-.794 1.17a4 4 0 0 0-.209.503c-.083.209-.125.418-.125.543 0 .335.25.502.794.502h2.299l-.585 1.297h-2.174c-.92 0-1.504-.251-1.839-.711-.167-.21-.209-.46-.209-.795q0-.564.376-1.38C22.863 1.004 24.242 0 26.165 0h2.299zm-6.228.041h-2.132c-.668 0-1.17.293-1.588.92h3.302l-.627 1.297h-3.343c-.084.21-.126.419-.126.544 0 .084 0 .167.042.21.084.125.334.208.669.208h2.299l-.544 1.297h-2.173c-.92 0-1.505-.251-1.84-.711-.167-.21-.208-.46-.208-.795q0-.564.376-1.38c.501-1.046 1.086-1.84 1.797-2.3Q18.453 0 19.895 0h2.3zm-8.276.042h-1.337l-.46 1.004h1.17c.377 0 .627-.042.753-.084a.79.79 0 0 0 .46-.501c.083-.168.083-.251.041-.293q-.125-.126-.627-.126m.377 2.133.376 2.301H12.33l-.292-2.091h-1.129l-.961 2.091h-1.63L10.95.042h3.093c1.128 0 1.672.334 1.672 1.004q0 .375-.251.878c-.334.795-.92 1.339-1.755 1.59M9.32 1.338H7.23c-.751 0-1.337.335-1.796.962H8.86l-.585 1.297H4.848L3.845 5.814H2.173l1.254-2.76c.335-.67.586-1.172.795-1.465A3.24 3.24 0 0 1 5.475.46c.586-.293 1.38-.418 2.3-.418h2.131zM80 5.814h-1.714l.042-1.297h-2.173l-1.087 1.297H73.27L78.454.042H80zm-2.717-2.593h1.087l.042-1.339zM43.47 5.814l2.675-5.76c.974.059 1.998-.054 2.964 0 .497.03 1.642.11 1.776.699.197.866-.489 1.957-1.342 2.18-.004.187.18.271.222.455.238 1.02-1.091 2.422-2.103 2.422h-4.196zm5.476-4.392h-1.84l-.359.878h1.639c.359 0 .97-.752.56-.878m-3.24 3.112h1.639c.259 0 .723-.422.748-.694l-.109-.184h-1.956l-.318.878zm6.249 1.28H50.24L52.874.042h1.713zm5.057-2.635h1.129l.042-1.339zm2.717 2.635h-1.713l.041-1.297h-2.215l-1.087 1.297h-1.797L58.182.042h1.546zm.794 0L63.169.079l1.843-.037.523 3.287L67.018.042h1.605l-2.58 5.76-1.75.008-.485-3.443-1.605 3.447h-1.685zm13.794-4.517h-2.132q-.753 0-1.254.502c-.293.25-.543.669-.794 1.17a4 4 0 0 0-.21.503c-.083.209-.124.418-.124.543 0 .335.25.502.794.502h2.298l-.627 1.297h-2.173c-.92 0-1.505-.251-1.839-.711-.167-.21-.209-.46-.209-.795q0-.564.376-1.38C69.3 1.004 70.68 0 72.602 0H74.9z" clip-rule="evenodd"/><path fill="#000" fill-rule="evenodd" d="M1.087 7.574h78.83L78.83 10H0z" clip-rule="evenodd"/><path fill="#fff" d="M79.457 7.825H53.689l-.899 1.882h25.768zM27.085 7.825H1.317L.418 9.707h25.768z"/></g><defs><clipPath id="a"><path fill="#fff" d="M0 0h80v10H0z"/></clipPath></defs></svg>