<svg class="color-immutable" xmlns="http://www.w3.org/2000/svg" width="48" height="11" fill="none" viewBox="0 0 48 11"><g clip-path="url(#a)"><path fill="#fff" d="M26.779 4.083c0 .55-.58 1.123-1.573 1.717-.034.023-.056.023-.067.012l-.022-.023c-.011-.01-.034-.034-.011-.056.368-.427.546-.83.546-1.122 0-.247-.167-.37-.401-.37-.48 0-.926.504-1.172 1.526l-.446 1.83c-.011.033-.034.033-.045.033h-1.25c-.022 0-.044 0-.033-.045L23.32 3.49c.011-.034.034-.034.045-.034h1.372c.023 0 .034.022.023.045l-.949 1.446c-.022.034-.011.045.011.056l.022.011c.022.011.034.011.067-.034l.402-.527c.546-.719.97-1.107 1.629-1.107.524 0 .837.31.837.737m-10.961-.736c-1.622 0-2.77 1.25-2.77 2.58 0 1.155.78 1.82 1.868 1.82.701 0 1.601-.303 2.256-1.478.011-.022-.004-.04-.014-.047l-.037-.026q-.036-.026-.052 0c-.25.308-.768.753-1.542.753-.775 0-1.084-.623-1.03-1.375.055-.78.601-1.97 1.276-1.97.383-.001.492.375.492.778 0 .214-.03.428-.062.583a.08.08 0 0 1-.06.064l-1.363.393c-.03.007-.045.02-.048.049l-.005.045q-.007.05.048.049h2.508c.082 0 .125-.037.134-.074.064-.21.1-.43.1-.642 0-.815-.523-1.503-1.698-1.503zm-5.158 2.96-.191.092c-.046.018-.048.056-.055.083-.045.165-.09.33-.155.513-.665 1.961-2.478 3.4-4.665 3.4A4.873 4.873 0 0 1 .71 5.52C.71 2.823 2.888.614 5.594.614c2.187 0 3.763 1.44 4.41 2.879L6.077 4.932c-.046.009-.091-.019-.091-.074l-.3-3.171q0-.055-.055-.055H5.54q-.054 0-.054.055l-.301 3.171c0 .055-.046.083-.09.074L2.27 4.143c-.028-.01-.055 0-.064.037l-.037.082c-.009.037 0 .055.028.074L4.51 5.509c.037.01.037.055 0 .074L2.215 6.747c-.018.01-.027.037-.018.064l.027.091c.018.037.037.046.073.037l2.798-.78c.045-.008.09.01.09.074l.301 3.172q0 .055.054.055h.091q.055 0 .055-.055l.3-3.172c0-.064.046-.082.091-.073l2.825.788c.027.01.054 0 .063-.036l.037-.092c.01-.027 0-.055-.027-.064L6.669 5.583c-.036-.018-.036-.064 0-.074l3.69-1.806c.047-.018.055-.064.047-.119C9.923 1.741 8.036 0 5.476 0 2.36 0 0 2.448 0 5.51 0 8.57 2.36 11 5.476 11c2.597 0 4.465-1.696 5.085-3.905.063-.238.146-.605.146-.76 0-.028-.019-.037-.046-.028m11.913-2.85h-1.238c-.023 0-.045 0-.056.034l-.503 2.074c-.222.92-.758 1.426-1.327 1.426-.301 0-.446-.135-.446-.393 0-.112.01-.202.044-.359l.68-2.737c.012-.045-.021-.045-.033-.045h-1.25c-.01 0-.033 0-.044.034l-.658 2.659c-.045.168-.101.393-.101.628 0 .55.357.97 1.082.97.781 0 1.362-.43 1.83-1.037l.19-.247c.034-.045.045-.045.067-.034l.022.011c.022.011.034.023.011.056l-.658 1.09c-.011.022 0 .044.022.044h1.339c.011 0 .034 0 .045-.033l1.015-4.096c.011-.045-.022-.045-.034-.045zm8.67 1.631c0 1.494-1.166 2.659-2.787 2.659-.957 0-1.84-.605-1.84-1.742 0-1.495 1.174-2.659 2.787-2.659.966 0 1.84.605 1.84 1.742M29.94 4.41c0-.559-.246-.797-.592-.797-.501 0-.884.458-1.13 1.384-.173.66-.3 1.238-.3 1.687 0 .559.246.797.592.797.501 0 .884-.468 1.13-1.384.182-.66.3-1.238.3-1.687m17.223-1.063c-.658 0-1.083.388-1.63 1.107l-.4.527c-.035.045-.046.045-.068.034l-.022-.01c-.022-.012-.034-.023-.011-.057l.949-1.446c.01-.022 0-.045-.023-.045h-1.372c-.011 0-.034 0-.045.034l-1.015 4.095c-.011.045.01.045.033.045h1.25c.011 0 .034 0 .045-.034l.446-1.83c.246-1.021.692-1.526 1.172-1.526.234 0 .401.124.401.37 0 .292-.178.697-.546 1.123-.022.022 0 .045.01.056l.023.023c.011.01.034.01.067-.012C47.42 5.207 48 4.634 48 4.084c0-.427-.312-.737-.837-.737m-13.36 0c-1.266 0-1.949.605-1.949 1.356 0 .504.3.853.93 1.137l.655.312c.547.247.683.43.683.678 0 .367-.319.642-.947.642-.492 0-.802-.248-.802-.615 0-.22.12-.413.292-.623.017-.02.01-.046-.018-.046h-1.199c-.027 0-.035.015-.045.037a1 1 0 0 0-.069.357c0 .679.593 1.165 1.777 1.165 1.358 0 2.16-.67 2.16-1.458 0-.468-.256-.77-.985-1.11l-.665-.302c-.419-.192-.583-.385-.583-.641 0-.349.292-.615.784-.615.446 0 .738.302.738.679a1 1 0 0 1-.136.468c-.013.022-.01.054.031.054h1.107c.037 0 .046-.018.046-.055.054-.605-.465-1.42-1.804-1.42m9.739 1.32c0 .183-.02.364-.082.614l-.59 2.313c-.01.037-.036.037-.046.037h-1.34c-.017 0-.026-.028-.017-.046l.656-1.094q.025-.041-.01-.055l-.027-.01c-.029-.008-.051-.002-.073.028l-.182.248c-.474.605-1.034 1.045-1.809 1.045-.655 0-1.093-.422-1.093-.99 0-.862.852-1.293 1.627-1.403.588-.083 1.274-.19 1.565-.228a.12.12 0 0 0 .098-.083c.084-.27.168-.546.168-.798 0-.357-.164-.623-.702-.623-.437 0-.783.257-.783.816 0 .1.009.22.036.348 0 .018-.01.037-.036.037h-1.313a.03.03 0 0 1-.027-.027c-.081-.792.665-1.449 2.178-1.449 1.372 0 1.802.688 1.802 1.32m-1.474.743c-1.043.187-1.786.518-1.786 1.058 0 .313.278.48.56.48.575 0 .954-.549 1.268-1.492.012-.037-.015-.05-.041-.046m-3.463 1.098-.033-.023c-.023-.013-.034-.01-.056.012-.179.18-.547.449-.882.449-.257 0-.401-.157-.401-.393 0-.124.022-.247.067-.393l.68-2.335h1.171c.022 0 .045 0 .056-.034l.078-.29c.011-.045-.022-.045-.033-.045h-1.183l.357-1.147c.01-.034-.011-.045-.034-.045h-.078c-.022 0-.045 0-.067.034-.524.786-1.182 1.179-2.209 1.347l-.067.011c-.09.012-.09.023-.1.057l-.012.056c-.01.056.034.056.045.056h.703l-.67 2.312c-.077.27-.122.494-.122.685 0 .594.457.924 1.049.924.96 0 1.595-.958 1.752-1.183.015-.022.014-.039-.012-.056z"/></g><defs><clipPath id="a"><path fill="#fff" d="M0 0h48v11H0z"/></clipPath></defs></svg>