<svg class="color-immutable" xmlns="http://www.w3.org/2000/svg" width="85" height="7" fill="none" viewBox="0 0 85 7"><g clip-path="url(#a)"><path fill="#fff" fill-rule="evenodd" d="M24.475 0q.87 0 1.561.3c.46.2.84.5 1.14.88l-1.14 1.021c-.22-.24-.44-.42-.68-.54s-.56-.18-.82-.18q-.391 0-.722.12-.246.09-.436.248l-.124.092c-.16.16-.28.36-.36.58-.1.22-.14.46-.14.74s.06.521.14.74c.08.241.2.422.36.582s.34.28.56.36.421.12.721.12.58-.06.82-.18c.26-.12.481-.3.681-.54l1.14 1.02c-.3.38-.68.68-1.14.88-.46.22-1.061.32-1.561.32q-.75 0-1.381-.24c-.42-.16-.8-.38-1.1-.68s-.54-.64-.72-1.04-.261-.84-.261-1.32.08-.922.26-1.322c.16-.4.42-.74.72-1.04.32-.3.68-.52 1.1-.68S23.895 0 24.476 0m7.484 0q.87 0 1.561.3c.46.2.841.5 1.141.88l-1.14 1.021c-.22-.24-.441-.42-.681-.54s-.56-.18-.82-.18q-.39 0-.721.12-.246.09-.437.248l-.124.092c-.16.16-.28.36-.36.58-.1.22-.14.46-.14.74s.06.52.14.74c.081.241.2.422.36.582s.34.28.56.36.421.12.722.12c.3 0 .58-.06.82-.18.26-.12.48-.3.68-.54l1.141 1.02c-.3.38-.68.68-1.14.88-.46.22-1.062.32-1.562.32q-.75 0-1.38-.24c-.42-.16-.801-.38-1.102-.68-.3-.3-.54-.64-.72-1.04s-.26-.84-.26-1.32.08-.922.26-1.322c.16-.4.42-.74.72-1.04.32-.3.681-.52 1.101-.68S31.378 0 31.96 0m34.88.019c.42 0 .821.04 1.222.14.4.08.74.22 1.06.4l-.54 1.32q-.451-.24-.901-.36c-.3-.08-.6-.12-.86-.12s-.461.02-.601.08c-.14.04-.26.12-.32.2s-.1.161-.1.281.08.24.2.32c.14.08.3.14.52.2s.44.1.7.16c.24.06.501.12.762.2.26.08.5.181.7.321s.38.32.5.54c.14.22.2.44.2.82s-.12.72-.32 1.021-.5.56-.92.74-1.062.28-1.562.28-1-.08-1.48-.2-.861-.3-1.162-.5l.582-1.32c.28.18.62.32.98.44s.84.18 1.1.18c.196 0 .346-.012.476-.034l.145-.026c.14-.04.26-.1.32-.18.06-.06.1-.12.1-.26s-.06-.26-.2-.34-.32-.141-.52-.2c-.22-.06-.441-.101-.701-.161-.26-.04-.5-.12-.76-.2a2.5 2.5 0 0 1-.7-.32c-.22-.14-.38-.32-.52-.54s-.2-.46-.2-.84.12-.72.32-1.021c.22-.3.54-.561.94-.741s.92-.28 1.54-.28m7.105 0c.42 0 .82.04 1.221.14.4.08.74.22 1.06.4l-.54 1.32q-.45-.24-.9-.36c-.3-.08-.601-.12-.861-.12s-.44.02-.6.08c-.14.04-.26.12-.32.2s-.1.161-.1.281.08.24.2.32c.14.08.3.14.52.2s.44.1.7.16c.24.06.5.12.761.2.26.08.5.181.7.321s.38.32.5.54c.14.22.2.44.2.82s-.12.72-.32 1.021-.5.56-.92.74-1.061.28-1.561.28-1-.08-1.48-.2c-.481-.12-.862-.3-1.162-.5l.581-1.32c.28.18.62.32.98.44s.841.18 1.101.18c.195 0 .345-.012.476-.034l.144-.026c.14-.04.26-.1.32-.18.06-.06.1-.12.1-.26s-.06-.26-.2-.34a2.6 2.6 0 0 0-.52-.2c-.22-.06-.44-.101-.7-.161-.26-.04-.5-.12-.76-.2s-.5-.18-.7-.32a1.7 1.7 0 0 1-.521-.54c-.14-.22-.2-.46-.2-.84s.12-.72.32-1.021c.22-.3.54-.561.94-.741s.921-.28 1.541-.28m-14.97 0c.52 0 .982.08 1.402.24s.78.38 1.1.68.56.641.74 1.041.26.841.26 1.301-.08.9-.26 1.301-.42.74-.74 1.04c-.3.3-.68.52-1.1.68s-.901.241-1.401.241-.98-.08-1.4-.24a3.19 3.19 0 0 1-1.861-1.72c-.181-.401-.26-.842-.26-1.302s.079-.9.259-1.3.42-.741.74-1.042c.32-.28.701-.52 1.121-.68.44-.16.88-.24 1.4-.24M9.647.139c.56 0 1.06.1 1.481.28.4.181.74.44.96.8.22.34.34.782.34 1.242 0 .402-.092.774-.262 1.089l-.058.151c-.22.32-.52.58-.9.76l1.36 1.982h-1.901l-1.14-1.681h-.981v1.681h-1.78V.14zm41.584 0c.56 0 1.06.1 1.48.28.4.181.74.44.96.8.221.34.342.782.342 1.242 0 .402-.093.774-.263 1.089l-.058.151c-.22.32-.52.58-.9.76l1.36 1.982h-1.9l-1.14-1.681h-.982v1.681h-1.78V.14zM4.942 1.502h-3.16v1.38h2.78v1.382h-2.78v2.16H0V.12h4.942zm14.39 0h-3.183v1.081h2.801v1.32h-2.8v1.141h3.301v1.38h-5.063V.12h4.943zm18.831 4.923h-1.78V.12h1.78zm8.685 0h-1.862l-.48-1.2h-2.682l-.48 1.2h-1.82L42.283.12h1.762zM82.268.12l2.802 6.304H83.21l-.48-1.2h-2.702l-.48 1.2h-1.821L80.508.12zM58.996 1.5c-.24 0-.48.04-.68.12q-.3.12-.54.36a1.5 1.5 0 0 0-.36.56c-.101.22-.14.461-.14.741s.06.52.14.74c.08.24.2.42.36.58q.24.24.54.36c.22.081.44.121.68.121s.48-.04.68-.12q.3-.12.54-.36c.16-.16.281-.36.361-.58.1-.22.14-.46.14-.74s-.06-.522-.14-.742a1.5 1.5 0 0 0-.36-.56q-.24-.24-.541-.36c-.22-.08-.44-.12-.68-.12m-16.63 2.402h1.64l-.82-2.04zm38.223 0h1.64l-.82-2.04zm-72.083-.54h1q.572 0 .842-.24c.18-.161.279-.402.279-.682s-.1-.52-.28-.68c-.2-.16-.46-.24-.84-.24H8.505zm41.604 0h.98q.572 0 .842-.24c.18-.161.28-.401.28-.682 0-.28-.1-.52-.28-.68-.2-.16-.461-.24-.841-.24h-.98z" clip-rule="evenodd"/></g><defs><clipPath id="a"><path fill="#fff" d="M0 0h85v6.56H0z"/></clipPath></defs></svg>