<svg xmlns="http://www.w3.org/2000/svg" width="36" height="36" fill="none" viewBox="0 0 36 36"><path fill="#000" d="M26.749 20.749h-.5c-2.205 0-4 1.795-4 4v.5H11.737q.013.124.013.25A2.753 2.753 0 0 1 9 28.249a2.753 2.753 0 0 1-2.75-2.75A2.753 2.753 0 0 1 9 22.749c1.066 0 1.99.61 2.446 1.5h9.828a5.01 5.01 0 0 1 4.475-4.476V8.75h-1.75v-1h2.75zm.251 2a2.753 2.753 0 0 1 2.75 2.75 2.753 2.753 0 0 1-2.75 2.75 2.753 2.753 0 0 1-2.75-2.75 2.753 2.753 0 0 1 2.75-2.75m-18 1c-.964 0-1.75.786-1.75 1.75s.786 1.75 1.75 1.75 1.75-.786 1.75-1.75-.786-1.75-1.75-1.75m18 0c-.964 0-1.75.786-1.75 1.75s.786 1.75 1.75 1.75 1.75-.786 1.75-1.75-.786-1.75-1.75-1.75M17 12.997l3.249-.006.002 1-3.251.006V16h3.25v1H17v1.5h-2a3.5 3.5 0 0 1-3.464-3H6.75v-1h4.786a3.5 3.5 0 0 1 3.46-2.998l1.503-.002.501-.001zm-2.003-.496A2.498 2.498 0 1 0 15 17.499h1v-5z"/></svg>