<svg xmlns="http://www.w3.org/2000/svg" width="36" height="36" fill="none" viewBox="0 0 36 36"><path fill="#000" d="M18 3A15 15 0 0 1 31.23 25.071l-.319.566a15 15 0 0 1-7.17 6.221l-4.018-9.7a4.5 4.5 0 0 0 2.151-1.867l.096-.17a4.5 4.5 0 0 0-.966-5.473l-.148-.127a4.5 4.5 0 0 0-5.71 0l-.148.127a4.5 4.5 0 0 0-1.41 2.474l-.034.192a4.5 4.5 0 0 0 2.726 4.843l-4.019 9.701a15 15 0 0 1-7.17-6.221l-.318-.566a15 15 0 0 1 3.22-18.244l.493-.422A15 15 0 0 1 18 3m0 1A14.002 14.002 0 0 0 5.654 24.6a14 14 0 0 0 6.08 5.916l3.273-7.904a5.499 5.499 0 1 1 6.483-8.864 5.5 5.5 0 0 1 1.361 6.845 5.5 5.5 0 0 1-1.858 2.02l3.273 7.903A13.996 13.996 0 0 0 18 4"/></svg>