<svg xmlns="http://www.w3.org/2000/svg" width="24" height="24" fill="none" viewBox="0 0 24 24"><path fill="#000" d="M12 2a10 10 0 0 1 8.82 14.714l-.213.377a10 10 0 0 1-4.78 4.148l-2.678-6.468a3 3 0 0 0 1.833-3.1l-.04-.256a3 3 0 0 0-.845-1.561l-.193-.173a3 3 0 0 0-4.846 1.734l-.04.256a3 3 0 0 0 1.834 3.1L8.173 21.24l-.396-.175a10 10 0 0 1-5.66-10.588l.076-.427a10 10 0 0 1 3.134-5.497l.33-.282A10 10 0 0 1 12 2m0 1a9.002 9.002 0 0 0-7.937 13.242 9 9 0 0 0 3.59 3.637l1.941-4.685a3.998 3.998 0 1 1 4.943-6.286 4 4 0 0 1-.132 6.286l1.94 4.685a9 9 0 0 0 4.482-9.635A9 9 0 0 0 12 3"/></svg>