<svg class="color-immutable" xmlns="http://www.w3.org/2000/svg" width="59" height="20" fill="none" viewBox="0 0 59 20"><path fill="#EB0000" fill-rule="evenodd" d="M2 0a2 2 0 0 0-2 2v16a2 2 0 0 0 2 2h55a2 2 0 0 0 2-2V2a2 2 0 0 0-2-2z" clip-rule="evenodd"/><path fill="#fff" d="M40.835 11.203v1.954H39.38v2.642h-2.255v-2.642H32.3v-2.168l4.944-6.755h2.136v6.969zm-3.662.024V6.922l-2.974 4.304zM49.75 13.742v2.057h-8.33q0-.942.301-1.796.309-.855.862-1.471.427-.475.997-.926.577-.45 2.286-1.653.83-.578 1.163-1.076.332-.498.332-1.155 0-.76-.45-1.226-.444-.474-1.172-.474-1.787 0-1.843 2.57h-2.222V8.34q0-2.103 1.178-3.259Q44 3.957 45.82 3.957q1.612 0 2.697.918 1.179.996 1.178 2.681 0 1.472-.94 2.531-.31.348-.578.562-.27.205-1.416 1.005-1.092.759-1.566 1.162a6.4 6.4 0 0 0-.87.926zM11.421 4q1.273 0 2.014.3t1.173.993.432 1.653q0 .89-.344 1.73-.344.841-.845 1.345a3.6 3.6 0 0 1-1.076.765q-.577.26-1.554.397-.569.08-2.13.08H7.545l-.937 4.476H4.19L6.649 4zm13.872 1.962h-6.287l-.56 2.666h6.078l-.408 1.962h-6.078l-.738 3.187h6.831l-.416 1.962h-9.169L16.996 4h8.705zM7.945 9.316h.745q1.913 0 2.554-.24a2.1 2.1 0 0 0 1.008-.768q.37-.53.37-1.162 0-.423-.189-.696a1.07 1.07 0 0 0-.528-.396q-.34-.124-1.518-.124h-1.73z"/></svg>