<svg xmlns="http://www.w3.org/2000/svg" width="24" height="24" fill="none" viewBox="0 0 24 24"><path fill="#000" d="M12.515 2.013C17.799 2.28 22 6.649 22 12c0 5.523-4.477 10-10 10v-.001c-.682 0-1.349-.068-1.993-.198l.2-.98c.578.116 1.178.178 1.793.178V21a9 9 0 0 0 .463-17.99L12 3q-.904.002-1.759.172l-.096-.491-.097-.49A10 10 0 0 1 12 2zM4.52 17.007a9.1 9.1 0 0 0 2.488 2.483l-.278.415-.277.416a10.1 10.1 0 0 1-2.764-2.758zM8.74 7.062l7.826 4.304.762.42-.746.447-7.826 4.696-.757.454V6.654zM9 15.616l6.322-3.794L9 8.346zm-5.827-5.38a9.05 9.05 0 0 0-.001 3.526l-.49.097-.49.097a10.1 10.1 0 0 1 0-3.916zM6.977 4.53A9.1 9.1 0 0 0 4.52 6.992l-.416-.278-.415-.28A10.1 10.1 0 0 1 6.418 3.7z"/></svg>