<svg class="color-immutable" width="59" height="20" viewBox="0 0 59 20" fill="none" xmlns="http://www.w3.org/2000/svg"><g clip-path="url(#a)"><path d="M57.208 1c.439 0 .795.358.795.8v16.4c0 .442-.356.8-.795.8H1.792a.798.798 0 0 1-.795-.8V1.8c0-.442.356-.8.795-.8h55.416Zm0-1H1.792C.803 0 0 .806 0 1.8v16.4c0 .994.803 1.8 1.792 1.8h55.416c.99 0 1.792-.806 1.792-1.8V1.8c0-.994-.803-1.8-1.792-1.8Z" fill="#EB0000"/><path d="M4.18 4.198H7.96c1.092 0 1.87.146 2.334.436.833.518 1.25 1.4 1.25 2.642 0 1.55-.638 2.476-1.914 2.778.76.122 1.262.434 1.511.936.126.27.21.564.25.88.04.318.075 1.01.107 2.08.016.534.048.904.096 1.112.047.206.153.452.317.738H9.46a1.844 1.844 0 0 1-.217-.726c-.034-.294-.068-.928-.1-1.9-.022-.64-.058-1.084-.11-1.334a1.265 1.265 0 0 0-.3-.612.971.971 0 0 0-.467-.27c-.185-.048-.466-.072-.847-.072h-.917v4.912H4.184v-11.6H4.18Zm2.318 1.714v3.34h.909c.558 0 .959-.09 1.202-.27.4-.296.602-.782.602-1.46 0-.572-.142-.982-.423-1.234-.283-.252-.741-.376-1.38-.376h-.91ZM13.054 4.198h6.462v1.92h-4.144v2.738h3.89v1.888h-3.89v3.134h4.31v1.92h-6.628v-11.6ZM26.291 7.898c.026-.95.261-1.746.702-2.388.713-1.034 1.79-1.55 3.225-1.55 1.104 0 1.995.282 2.673.846.73.612 1.096 1.402 1.096 2.374 0 .58-.144 1.08-.43 1.5-.288.42-.674.702-1.163.85.62.142 1.11.458 1.471.95.361.492.54 1.084.54 1.78 0 1.144-.42 2.08-1.261 2.808-.778.676-1.76 1.012-2.948 1.012-1.288 0-2.308-.372-3.064-1.116C26.377 14.22 26 13.216 26 11.95v-.15h2.215c0 .712.167 1.262.504 1.65.337.388.811.582 1.427.582s1.088-.182 1.42-.546c.304-.342.456-.752.456-1.226 0-.57-.196-1.02-.584-1.352-.321-.274-.816-.412-1.483-.412-.19 0-.377.01-.56.032v-1.7c.137.01.267.016.394.016 1.324 0 1.987-.494 1.987-1.48 0-.432-.145-.782-.432-1.048-.29-.266-.67-.4-1.144-.4-.542 0-.959.168-1.254.506-.295.338-.453.83-.472 1.48h-2.185l.002-.004ZM39.227 3.958c.877 0 1.65.268 2.318.806.662.538 1.144 1.366 1.443 2.484.226.854.34 1.782.34 2.784 0 1.662-.296 3.026-.884 4.098-.347.622-.799 1.102-1.36 1.44a3.551 3.551 0 0 1-1.87.506c-.942 0-1.745-.284-2.413-.854-1.188-1.012-1.782-2.742-1.782-5.19 0-1.74.311-3.138.931-4.192a3.746 3.746 0 0 1 1.384-1.392 3.751 3.751 0 0 1 1.895-.49h-.002Zm-.088 1.954c-.757 0-1.271.438-1.544 1.314-.216.696-.323 1.672-.323 2.926 0 1.108.11 1.996.33 2.666.284.87.81 1.306 1.577 1.306.636 0 1.109-.338 1.42-1.012.31-.676.464-1.706.464-3.092 0-1.182-.11-2.112-.331-2.792-.283-.876-.815-1.314-1.593-1.314v-.002Z" fill="#E20613"/></g><defs><clipPath id="a"><path fill="#fff" d="M0 0h59v20H0z"/></clipPath></defs></svg>