<svg class="color-immutable" width="59" height="20" viewBox="0 0 59 20" fill="none" xmlns="http://www.w3.org/2000/svg"><g clip-path="url(#a)"><path d="M57.208 1c.439 0 .795.358.795.8v16.4c0 .442-.356.8-.795.8H1.792a.798.798 0 0 1-.795-.8V1.8c0-.442.356-.8.795-.8h55.416Zm0-1H1.792C.803 0 0 .806 0 1.8v16.4c0 .994.803 1.8 1.792 1.8h55.416c.99 0 1.792-.806 1.792-1.8V1.8c0-.994-.803-1.8-1.792-1.8Z" fill="#EB0000"/><path d="M4.18 4.198H7.96c1.092 0 1.87.146 2.334.436.833.518 1.25 1.4 1.25 2.642 0 1.55-.638 2.476-1.914 2.778.76.122 1.262.434 1.511.936.126.27.21.564.25.88.04.318.075 1.01.107 2.08.016.534.048.904.096 1.112.047.206.153.452.317.738H9.46a1.844 1.844 0 0 1-.217-.726c-.034-.294-.068-.928-.1-1.9-.022-.64-.058-1.084-.11-1.334a1.265 1.265 0 0 0-.3-.612.971.971 0 0 0-.467-.27c-.185-.048-.466-.072-.847-.072h-.917v4.912H4.184v-11.6H4.18Zm2.318 1.714v3.34h.909c.558 0 .959-.09 1.202-.27.4-.296.602-.782.602-1.46 0-.572-.142-.982-.423-1.234-.283-.252-.741-.376-1.38-.376h-.91ZM13.054 4.198h6.462v1.92h-4.144v2.738h3.89v1.888h-3.89v3.134h4.31v1.92h-6.628v-11.6ZM28.119 9.59c-.536-.184-.947-.488-1.234-.91-.287-.422-.43-.934-.43-1.534 0-1.002.41-1.8 1.23-2.396.725-.528 1.586-.792 2.585-.792 1.136 0 2.063.314 2.782.942.684.59 1.025 1.32 1.025 2.192 0 .606-.144 1.126-.433 1.558-.289.432-.7.746-1.23.942.415.122.754.276 1.017.466.73.532 1.096 1.31 1.096 2.334 0 1.176-.448 2.112-1.347 2.808-.758.586-1.73.878-2.916.878-1.288 0-2.313-.322-3.074-.966-.793-.67-1.19-1.548-1.19-2.634 0-1.018.353-1.806 1.056-2.366a2.91 2.91 0 0 1 1.065-.522h-.002Zm2.105.87c-.568 0-1.03.176-1.392.526-.36.35-.54.8-.54 1.348s.184 1.024.548 1.376c.365.354.84.53 1.424.53.661 0 1.158-.196 1.49-.586.321-.374.48-.806.48-1.298 0-.558-.183-1.018-.551-1.376-.353-.348-.84-.522-1.46-.522v.002Zm.016-4.706c-.505 0-.913.142-1.222.424-.311.282-.465.652-.465 1.112 0 .46.156.864.469 1.15.313.288.731.432 1.258.432.526 0 .94-.142 1.245-.428.305-.286.457-.672.457-1.162 0-.49-.154-.854-.46-1.124-.308-.268-.734-.404-1.282-.404ZM39.297 3.958c.877 0 1.65.268 2.318.806.662.538 1.144 1.366 1.443 2.484.225.854.34 1.782.34 2.784 0 1.662-.296 3.026-.884 4.098-.347.622-.8 1.102-1.36 1.44a3.552 3.552 0 0 1-1.871.506c-.94 0-1.744-.284-2.412-.854-1.188-1.012-1.782-2.742-1.782-5.19 0-1.74.311-3.138.931-4.192a3.746 3.746 0 0 1 1.383-1.392 3.751 3.751 0 0 1 1.896-.49h-.002Zm-.088 1.954c-.757 0-1.271.438-1.545 1.314-.215.696-.322 1.672-.322 2.926 0 1.108.11 1.996.33 2.666.284.87.81 1.306 1.577 1.306.636 0 1.108-.338 1.42-1.012.31-.676.464-1.706.464-3.092 0-1.182-.11-2.112-.331-2.792-.283-.876-.815-1.314-1.593-1.314v-.002Z" fill="#E20613"/></g><defs><clipPath id="a"><path fill="#fff" d="M0 0h59v20H0z"/></clipPath></defs></svg>