<svg width="59" height="20" fill="none" xmlns="http://www.w3.org/2000/svg"><path d="M.5 2A1.5 1.5 0 0 1 2 .5h55A1.5 1.5 0 0 1 58.5 2v16a1.5 1.5 0 0 1-1.5 1.5H2A1.5 1.5 0 0 1 .5 18V2Z" fill="#fff" stroke="#EB0000"/><path fill-rule="evenodd" clip-rule="evenodd" d="M7.966 4.2h-3.78v11.6h2.317v-4.911h.917c.284-.01.568.014.846.071.178.044.34.137.467.27.154.172.258.383.3.61.07.442.107.887.11 1.334.032.973.065 1.606.1 1.9.022.254.096.501.217.726h2.451a2.828 2.828 0 0 1-.316-.738 6.658 6.658 0 0 1-.095-1.11c-.031-1.07-.067-1.762-.107-2.08a2.904 2.904 0 0 0-.248-.88c-.248-.503-.752-.815-1.511-.937 1.276-.3 1.914-1.227 1.914-2.777 0-1.243-.417-2.123-1.25-2.642-.464-.29-1.241-.436-2.332-.436ZM6.503 9.254v-3.34h.91c.637 0 1.097.125 1.379.377.282.25.423.662.423 1.233 0 .678-.2 1.164-.6 1.46-.243.18-.644.27-1.203.27h-.91Z" fill="#EB0000"/><path d="M13.058 4.2h6.46v1.92h-4.143v2.737h3.89v1.889h-3.89v3.134h4.31v1.92h-6.627V4.2Z" fill="#EB0000"/></svg>