<svg width="16" height="16" viewBox="0 0 16 16" fill="none" xmlns="http://www.w3.org/2000/svg"><path fill-rule="evenodd" clip-rule="evenodd" d="M5.98 5.553c.317 0 .447-.218.289-.485L3.858 1C2.224 1.92 1.1 3.606 1 5.553h4.98ZM2.84 10.908A7.707 7.707 0 0 1 1 6.706h11.467a7.709 7.709 0 0 1-1.84 4.202H2.839Zm-.384 2.127C2.455 14.12 3.36 15 4.472 15c1.113 0 2.018-.88 2.018-1.965 0-1.083-.905-1.965-2.018-1.965-1.112 0-2.017.882-2.017 1.965Zm.583 0c0-.77.643-1.397 1.434-1.397.792 0 1.436.626 1.436 1.397s-.644 1.397-1.436 1.397c-.791 0-1.434-.626-1.434-1.397Zm3.781 0C6.82 14.12 7.725 15 8.837 15c1.112 0 2.018-.88 2.018-1.965 0-1.083-.906-1.965-2.018-1.965-1.112 0-2.018.882-2.018 1.965Zm.583 0c0-.77.644-1.397 1.435-1.397s1.435.626 1.435 1.397-.644 1.397-1.435 1.397-1.435-.626-1.435-1.397Zm3.782-7.784h3.452c.127 0 .23.101.23.225a.228.228 0 0 1-.23.224h-3.452v-.449Z" fill="#000"/></svg>