<svg xmlns="http://www.w3.org/2000/svg" width="13" height="16" fill="none" viewBox="0 0 13 16"><path fill="#000" fill-rule="evenodd" d="M4.5 4a1.5 1.5 0 1 0 0-3 1.5 1.5 0 0 0 0 3M2.72 5.35c.254-.16.623-.35 1.03-.35h1.5c.475 0 .875.289 1.112.489.275.231.535.522.751.788a12 12 0 0 1 .622.844l1.252.417a.75.75 0 1 1-.474 1.424l-1.756-.586-.143-.228-.002-.003-.009-.014a7 7 0 0 0-.178-.269A10 10 0 0 0 6 7.286V8.94l1.5 1.5v1.311a.75.75 0 0 1-1.5 0v-.69L4.94 10H4.5v1.824l-.515 2.573a.75.75 0 1 1-1.47-.294L3 11.676V7.03l-.023.021c-.183.17-.347.34-.467.471l-.01.011V9.25a.75.75 0 0 1-1.5 0V6.978l.174-.208.576.48-.576-.48.002-.003.004-.004.013-.016a6 6 0 0 1 .211-.238c.138-.15.333-.354.556-.56.22-.203.484-.424.76-.599M9 10.5h3V12h-1.5v3H6.25v-1.5H9z" clip-rule="evenodd"/></svg>