<svg width="23" height="16" viewBox="0 0 23 16" fill="none" xmlns="http://www.w3.org/2000/svg"><path d="M0 1h22.9v14H0V1Zm1.26 12.73h20.38V2.27H1.26v11.46Z" fill="#000"/><path d="M3 3.55h2.75c1.57 0 2.63.7 2.63 2.32a2 2 0 0 1-1.71 2.07V8c.33.06.7.21 1 1l1.15 3.35H7.08l-.87-2.86A1.16 1.16 0 0 0 5 8.57h-.38v3.78H3v-8.8Zm2.27 3.83A1.27 1.27 0 0 0 6.71 6c0-1-.53-1.26-1.44-1.26h-.65v2.6l.65.04ZM14.64 12a4.868 4.868 0 0 1-2 .41c-2.09 0-3-1.5-3-3.25 0-1.94 1-3.45 2.68-3.45 1.4 0 2.59.82 2.59 3.47v.31H11.2c0 1.11.45 1.78 1.66 1.78a2.53 2.53 0 0 0 1.7-.51l.08 1.24Zm-1.19-3.5c0-1.15-.38-1.73-1.08-1.73-.7 0-1.17.87-1.17 1.73h2.25ZM16 10.84a4.2 4.2 0 0 0 1.63.43c.57 0 1-.14 1-.65 0-.25-.13-.49-.7-.82l-.64-.37c-.66-.4-1.37-.81-1.37-1.83a2.07 2.07 0 0 1 2.24-1.85A5.13 5.13 0 0 1 19.8 6l-.09 1.21a3.61 3.61 0 0 0-1.37-.29c-.63 0-.9.24-.9.63s.28.54.73.83l.77.5c.81.51 1.21.88 1.21 1.64 0 1.19-1 1.91-2.42 1.91a5.362 5.362 0 0 1-1.8-.31l.07-1.28Z" fill="#000"/></svg>