<svg xmlns="http://www.w3.org/2000/svg" width="28" height="16" fill="none" viewBox="0 0 28 16"><path fill="#000" fill-rule="evenodd" d="M20.848 1h3.5q1.04 0 1.593.316.459.258.702.689t.242.971q0 .613-.306 1.067-.302.454-.846.651.48.115.752.517.173.253.232.531t.153 1.268q.07.728.213.905l.07.08h-1.647a1.2 1.2 0 0 1-.124-.377 18 18 0 0 1-.094-1.062q-.06-.742-.376-1.024-.31-.288-1.068-.288h-1.419v2.752h-1.577zm1.577 1.201v1.924h1.508q.727 0 1.024-.201.375-.255.376-.766 0-.498-.322-.727-.321-.23-1.013-.23z" clip-rule="evenodd"/><path fill="#000" d="M5.34 5c-.195 0-.375.087-.485.145-.13.07-.27.163-.407.264-.276.201-.586.464-.871.718a28 28 0 0 0-.993.93l-.005.006-1.39.463a.5.5 0 1 0 .317.948l1.612-.537.088-.088.017-.016.062-.062a28 28 0 0 1 .957-.898c.203-.18.41-.357.598-.506V14.5a.5.5 0 0 0 1 0V10h1.008v4.5a.5.5 0 0 0 1 0V6.693q.127.19.27.413c.226.346.476.731.73 1.066V14.5a.5.5 0 1 0 1 0V10h1v4.5a.5.5 0 0 0 1 0V7.707l.91-.91.037-.073.003-.006.013-.025q.013-.026.037-.066V14.5a.5.5 0 0 0 1 0V10h1v4.5a.5.5 0 0 0 1 0V6.363c.191.15.4.328.605.51a27 27 0 0 1 .957.898l.063.062.016.016.005.005.084.083 1.612.537a.5.5 0 0 0 .316-.948l-1.39-.463-.005-.006a29 29 0 0 0-.994-.93 12 12 0 0 0-.873-.719 4 4 0 0 0-.41-.263A1.1 1.1 0 0 0 15.348 5h-2c-.29 0-.524.14-.68.266-.163.13-.301.292-.408.434a4 4 0 0 0-.319.5l-.093.093V5.75a.75.75 0 0 0-.75-.75h-1.5a.75.75 0 0 0-.75.75v.642l-.191-.288a5.6 5.6 0 0 0-.533-.695 1.7 1.7 0 0 0-.312-.264A.87.87 0 0 0 7.348 5zM6.348 4a1.5 1.5 0 1 0 0-3 1.5 1.5 0 0 0 0 3M11.848 2.5a1.5 1.5 0 1 1-3 0 1.5 1.5 0 0 1 3 0M14.348 4a1.5 1.5 0 1 0 0-3 1.5 1.5 0 0 0 0 3"/></svg>