<svg width="14" height="16" viewBox="0 0 14 16" fill="none" xmlns="http://www.w3.org/2000/svg"><path fill-rule="evenodd" clip-rule="evenodd" d="M5.422 13.783c-1.741 0-3.16-1.365-3.16-3.045 0-1.678 1.419-3.042 3.16-3.042V6.478C2.984 6.478 1 8.389 1 10.738 1 13.088 2.984 15 5.422 15c2.437 0 4.42-1.912 4.42-4.262H8.58c0 1.68-1.418 3.045-3.158 3.045Zm3.79-5.479V4.651h-3.16v5.479h5.684v3.653H13V8.304H9.212Zm-3.16-5.777c-.003-.84.7-1.525 1.574-1.527.87-.004 1.582.674 1.586 1.515.004.84-.701 1.523-1.573 1.527-.872.004-1.582-.674-1.586-1.515Z" fill="#000"/></svg>