<svg xmlns="http://www.w3.org/2000/svg" width="19" height="16" fill="none" viewBox="0 0 19 16"><path fill="#000" d="M6.41 5c.448 0 .856.239 1.078.616l.084.17L9.258 10h3.971l.201.435 1.5 3.25a.75.75 0 0 1-1.36.63l-1.3-2.815H6.242l-.189-.472-1.89-4.725A.95.95 0 0 1 5.045 5zM1.479 3.55a.75.75 0 0 1 .971.429L5.762 12.5h5.488a.75.75 0 0 1 0 1.5H4.737l-.186-.479-3.5-9a.75.75 0 0 1 .427-.97M16.4 1A1.6 1.6 0 0 1 18 2.6v2.8A1.6 1.6 0 0 1 16.4 7h-5.8A1.6 1.6 0 0 1 9 5.4V2.6A1.6 1.6 0 0 1 10.6 1zm-5.8 1.5a.1.1 0 0 0-.1.1v2.8l.008.038a.1.1 0 0 0 .091.062H16.4l.038-.008a.1.1 0 0 0 .054-.054L16.5 5.4V2.6a.1.1 0 0 0-.062-.092L16.4 2.5zM5.5 1a1.5 1.5 0 1 1 0 3 1.5 1.5 0 0 1 0-3"/></svg>