<svg xmlns="http://www.w3.org/2000/svg" width="36" height="16" fill="none" viewBox="0 0 36 16"><path fill="#000" fill-rule="evenodd" d="M10.612 14.86c2.29 0 4.177-1.73 4.429-3.95h3.24l3.87-4.802.327.624a4.59 4.59 0 0 0-1.831 3.668 4.601 4.601 0 0 0 9.202 0 4.6 4.6 0 0 0-4.603-4.6c-.534 0-1.043.096-1.52.264L21.063 1h-3.236v1.415h2.38l.744 1.417H14.75l-.375-.713 1.331.006V1.707l-4.932.014v1.39l2 .006.726 1.38-1.222 1.768A4.456 4.456 0 0 0 6.152 10.4c0 2.46 1.996 4.46 4.46 4.46m14.634-7.6a3.14 3.14 0 0 1 0 6.28 3.14 3.14 0 0 1-3.137-3.14c0-.936.417-1.767 1.068-2.343l1.586 3.014 1.252-.66-1.593-3.028c.265-.072.536-.123.824-.123m-12.54.94c.37.352.64.797.797 1.292h-1.67zm8.327-2.953-3.356 4.147-2.186-4.152zm-6.784.674 1.88 3.57h-1.15a4.46 4.46 0 0 0-1.47-2.477zm-3.637 1.434c.288 0 .559.054.822.13l-1.74 2.513.624.911h3.286a3.04 3.04 0 0 1-2.992 2.533A3.05 3.05 0 0 1 7.567 10.4a3.05 3.05 0 0 1 3.045-3.045M3.305 14.35q-.525-.799-.87-1.414-.348-.617-.89-1.841Q1 9.869 1 8.054q.001-1.685.591-3.1.588-1.415 1.713-3.175h1.272a33 33 0 0 0-.944 1.76q-.327.67-.781 1.84-.451 1.17-.453 2.695c0 1.038.166 1.981.5 2.82q.498 1.263.77 1.824.272.563.908 1.633H3.305zm31.057-9.523q-.634-1.434-1.668-3.048v.004h-1.269c.413.702.71 1.243.9 1.623q.278.57.605 1.38.325.807.49 1.622a8.3 8.3 0 0 1 .164 1.633q-.001 1.524-.463 2.738-.463 1.216-.735 1.76c-.181.361-.503.969-.96 1.814h1.268q.69-1.07.98-1.597t.808-1.752Q35 9.778 35 8.055q-.001-1.796-.638-3.23" clip-rule="evenodd"/></svg>