<svg width="26" height="16" fill="none" xmlns="http://www.w3.org/2000/svg"><path fill-rule="evenodd" clip-rule="evenodd" d="M5.46 7.355c.288 0 .559.053.822.129L4.543 9.998l.624.911h3.285a3.041 3.041 0 0 1-2.992 2.533A3.047 3.047 0 0 1 2.415 10.4 3.048 3.048 0 0 1 5.46 7.355Zm3.638-1.434 1.879 3.571h-1.15a4.45 4.45 0 0 0-1.471-2.478l.742-1.093Zm6.783-.674-3.356 4.146-2.186-4.152 5.542.006ZM7.554 8.199c.37.353.64.798.798 1.293h-1.67l.872-1.293Zm12.541-.939a3.14 3.14 0 0 1 0 6.28 3.142 3.142 0 0 1-3.137-3.14c0-.937.416-1.767 1.067-2.343l1.586 3.014 1.252-.659-1.593-3.029c.265-.073.537-.123.825-.123ZM5.46 14.86a4.46 4.46 0 0 0 4.429-3.951h3.241l3.869-4.801.327.623a4.59 4.59 0 0 0-1.831 3.669 4.602 4.602 0 0 0 9.202 0 4.6 4.6 0 0 0-4.602-4.6c-.534 0-1.043.096-1.522.263L15.912 1h-3.235v1.414h2.38l.743 1.418H9.599l-.375-.713 1.331.006V1.707l-4.933.014V3.11l1.999.006.728 1.382-1.222 1.767A4.46 4.46 0 1 0 5.46 14.86Z" fill="#000"/></svg>