<svg width="22" height="16" viewBox="0 0 22 16" fill="none" xmlns="http://www.w3.org/2000/svg"><path fill-rule="evenodd" clip-rule="evenodd" d="M20.444 1H1v14h19.444V1Zm-1.296 12.709H2.296V2.296h16.852V13.71Zm-12.4-8.75h1.044l.372.67-.883 1.303c-.345-.118-.644-.176-.895-.176-.74 0-1.37.26-1.887.776a2.563 2.563 0 0 0-.777 1.878c0 .734.26 1.36.777 1.877.515.52 1.144.777 1.883.777.668 0 1.246-.215 1.735-.646.487-.43.784-.984.892-1.658h1.616L13.381 6.7l.226.485a2.622 2.622 0 0 0-1.193 2.224c0 .734.257 1.359.775 1.877.519.52 1.14.777 1.873.777.74 0 1.367-.258 1.886-.777a2.563 2.563 0 0 0 .774-1.877c0-.74-.26-1.369-.78-1.883a2.593 2.593 0 0 0-1.89-.771c-.15 0-.286.011-.403.033a4.975 4.975 0 0 0-.415.097l-1.402-2.95h-1.551v.666h1.133l.353.809H8.805l-.226-.452H9.3v-.647H6.749v.647ZM4.983 8.007c.388-.382.866-.571 1.433-.571.164 0 .322.028.475.085L5.853 9.093l.366.667h2.103c-.094.482-.32.873-.68 1.173a1.897 1.897 0 0 1-1.26.453c-.552 0-1.02-.192-1.405-.576a1.916 1.916 0 0 1-.576-1.4c0-.553.194-1.022.581-1.403Zm3.34 1.075H6.663l.844-1.267c.315.2.546.482.696.847l.119.42Zm.548-.635a2.484 2.484 0 0 0-.291-.516 2.338 2.338 0 0 0-.295-.357 5.152 5.152 0 0 0-.394-.333l.624-.938 1.466 2.78h-.97a2.923 2.923 0 0 0-.14-.636Zm1.736.37-1.45-2.75h3.928l-2.478 2.75Zm3.063 1.992a1.907 1.907 0 0 1-.576-1.4c0-.661.271-1.193.816-1.597l.975 2.08.63-.303-.974-2.08c.109-.035.186-.057.236-.063.05-.008.137-.01.26-.01.563 0 1.04.19 1.426.571.387.382.582.85.582 1.404 0 .553-.195 1.02-.582 1.402a1.926 1.926 0 0 1-1.401.573c-.545 0-1.01-.192-1.393-.576Z" fill="#000"/></svg>