<svg width="17" height="16" fill="none" xmlns="http://www.w3.org/2000/svg"><path fill-rule="evenodd" clip-rule="evenodd" d="M4.891 9.789 2.983 7.64l-.855-1.028a3.595 3.595 0 0 1-.693-2.162c0-1.095.404-2.127 1.21-3.1l.2-.216L2.943 1l4.842 5.462-.007-2.067 3.743-3.393.887.953L9.084 4.97l.002 1.59 4.101-3.758.915.979-4.127 3.753 1.616.104 3.311-2.991.909.937-3.726 3.393-2.199-.143 4.144 4.674L12.323 15l-4.284-4.835-.093-.343-.107.325L2.526 15 1 13.348l3.891-3.56ZM3.017 3.474c-.061.145-.104.286-.128.425a2.486 2.486 0 0 0-.035.406c0 .664.246 1.278.74 1.844l.51.576L5.94 8.82l1.086-.972-3.856-4.38-.134-.355-.018.361Z" fill="#000"/></svg>