<svg xmlns="http://www.w3.org/2000/svg" width="11" height="16" fill="none" viewBox="0 0 11 16"><path fill="#000" fill-rule="evenodd" d="M4.75 4a1.5 1.5 0 1 0 0-3 1.5 1.5 0 0 0 0 3M3.47 5.118A1.5 1.5 0 0 1 4 5h1.5c.261 0 .489.113.604.174.146.078.296.178.439.282.287.209.605.478.893.733a28 28 0 0 1 .967.905l1.334.444a.75.75 0 0 1-.474 1.424l-1.668-.556-.125-.126-.005-.004-.016-.016-.062-.06A28 28 0 0 0 6.25 7.144v1.794l2 2v3.311a.75.75 0 0 1-1.5 0v-2.69L5.19 10h-.44v1.958l-1.607 2.678a.75.75 0 1 1-1.286-.772l1.393-2.322V6.947q-.135.086-.271.177c-.272.181-.53.363-.72.5l-.009.006v1.62a.75.75 0 0 1-1.5 0V6.875l.3-.225.45.6-.45-.6.007-.005.018-.014.067-.05a28 28 0 0 1 1.004-.705c.289-.192.607-.394.893-.55a4 4 0 0 1 .431-.208" clip-rule="evenodd"/></svg>