<svg xmlns="http://www.w3.org/2000/svg" width="36" height="36" fill="none" viewBox="0 0 36 36"><path fill="#000" fill-rule="evenodd" d="M26.5 6.917c-2.935-.772-6.082-1.167-9.25-1.167-3.188 0-6.31.387-9.251 1.165l2.759 1.656-.515.857-3.75-2.25-.429-.257.258-.429 2.25-3.75.857.515-1.602 2.67c3.006-.787 6.185-1.177 9.423-1.177 3.22 0 6.425.398 9.425 1.179l-1.603-2.672.857-.515 2.25 3.75.258.43-.43.256-3.75 2.25-.514-.857zm-15.75 5.83a2 2 0 0 1 2-2l9 .001a2 2 0 0 1 2 2v18a2 2 0 0 1-2 2h-9a2 2 0 0 1-2-2zm2-1a1 1 0 0 0-1 1v18.001a1 1 0 0 0 1 1h9a1 1 0 0 0 1-1v-18a1 1 0 0 0-1-1zm6.75.501v1H15v-1zm-10.672-.553L4.54 13.267l.171.47-.172-.47a2 2 0 0 0-1.194 2.564v.003l5.188 13.965.937-.348-5.186-13.962v-.002a1 1 0 0 1 .598-1.28h.001l4.29-1.573zm21.042 1.572-4.29-1.572-.343.94 4.29 1.571a1 1 0 0 1 .599 1.281v.002L24.94 29.45l.937.348 5.187-13.965.001-.003a2 2 0 0 0-1.195-2.564l-.171.47z" clip-rule="evenodd"/></svg>