<svg class="color-immutable" width="59" height="20" fill="none" xmlns="http://www.w3.org/2000/svg"><path fill-rule="evenodd" clip-rule="evenodd" d="M2 0a2 2 0 0 0-2 2v16a2 2 0 0 0 2 2h55a2 2 0 0 0 2-2V2a2 2 0 0 0-2-2H2Z" fill="#000"/><path d="M4.186 11.949c-.032 2.86 2.364 4.127 4.923 4.127 3.142 0 4.81-1.593 4.81-3.721 0-2.632-2.592-3.168-3.434-3.38-2.898-.747-3.449-.86-3.449-1.754 0-.975.94-1.317 1.75-1.317 1.214 0 2.201.358 2.282 1.755h2.462c0-2.68-2.219-3.737-4.632-3.737-2.089 0-4.323 1.137-4.323 3.51 0 2.177 1.732 2.843 3.449 3.298 1.7.455 3.433.666 3.433 1.918 0 1.186-1.36 1.446-2.25 1.446-1.361 0-2.56-.602-2.56-2.145h-2.46Zm11.123 3.85h2.38V8.034h.032l4.81 7.767h2.542V4.198h-2.38v7.783h-.033l-4.825-7.783h-2.526V15.8ZM37.112 4.235V15.8H34.81V8.23h-2.712V6.552c.562-.016 1.02-.074 1.376-.174.354-.1.679-.264.973-.49.426-.328.712-.879.86-1.654h1.805ZM44.364 3.958c.878 0 1.65.269 2.318.807.662.538 1.143 1.366 1.443 2.484.226.854.339 1.782.339 2.784 0 1.661-.294 3.027-.883 4.098-.347.622-.8 1.102-1.36 1.44a3.557 3.557 0 0 1-1.872.505c-.941 0-1.745-.284-2.413-.854-1.187-1.012-1.781-2.742-1.781-5.189 0-1.74.31-3.138.93-4.192a3.755 3.755 0 0 1 1.384-1.393 3.743 3.743 0 0 1 1.895-.49Zm-.086 1.954c-.757 0-1.272.438-1.545 1.313-.216.696-.323 1.672-.323 2.927 0 1.107.11 1.996.33 2.665.284.87.81 1.306 1.577 1.306.636 0 1.11-.338 1.42-1.013.31-.675.464-1.706.464-3.093 0-1.181-.11-2.112-.33-2.792-.284-.875-.815-1.313-1.593-1.313Z" fill="#FFDE15"/></svg>