<svg width="59" height="20" fill="none" xmlns="http://www.w3.org/2000/svg"><g clip-path="url(#a)"><path fill-rule="evenodd" clip-rule="evenodd" d="M1.6 0a2 2 0 0 0-2 2v16a2 2 0 0 0 2 2h55a2 2 0 0 0 2-2V2a2 2 0 0 0-2-2h-55Z" fill="#000"/><path d="M4.186 11.949c-.032 2.86 2.364 4.127 4.923 4.127 3.142 0 4.81-1.593 4.81-3.721 0-2.632-2.592-3.168-3.434-3.38-2.898-.747-3.449-.86-3.449-1.754 0-.975.94-1.317 1.75-1.317 1.214 0 2.201.358 2.282 1.755h2.462c0-2.68-2.219-3.737-4.632-3.737-2.089 0-4.323 1.137-4.323 3.51 0 2.177 1.732 2.843 3.449 3.298 1.7.455 3.433.666 3.433 1.918 0 1.186-1.36 1.446-2.25 1.446-1.361 0-2.56-.602-2.56-2.145h-2.46Zm11.123 3.85h2.38V8.034h.032l4.81 7.767h2.542V4.198h-2.38v7.783h-.033l-4.825-7.783h-2.526V15.8ZM37.112 4.235V15.8H34.81V8.23h-2.712V6.552c.562-.016 1.02-.074 1.376-.174.354-.1.679-.264.973-.49.426-.328.712-.879.86-1.654h1.805ZM42.165 9.59c-.536-.185-.947-.488-1.234-.91-.286-.421-.43-.933-.43-1.534 0-1.002.41-1.801 1.23-2.397.726-.527 1.588-.791 2.586-.791 1.136 0 2.063.314 2.783.941.683.59 1.025 1.321 1.025 2.191 0 .607-.145 1.126-.434 1.559-.289.432-.699.746-1.23.941.416.121.755.277 1.018.467.73.532 1.095 1.31 1.095 2.333 0 1.176-.45 2.112-1.348 2.808-.757.586-1.729.878-2.917.878-1.287 0-2.312-.321-3.074-.965-.794-.67-1.19-1.547-1.19-2.634 0-1.017.352-1.806 1.056-2.365a2.91 2.91 0 0 1 1.064-.522Zm2.105.87c-.568 0-1.032.175-1.391.526-.36.35-.54.8-.54 1.349 0 .564.182 1.023.547 1.376.366.354.84.53 1.423.53.663 0 1.16-.195 1.49-.585.32-.375.481-.807.481-1.297 0-.56-.184-1.018-.552-1.377-.352-.348-.838-.522-1.458-.522Zm.016-4.706c-.505 0-.912.14-1.222.423-.31.282-.465.652-.465 1.111 0 .48.156.864.469 1.151.312.288.732.431 1.257.431.526 0 .94-.142 1.246-.427.305-.285.457-.672.457-1.163 0-.48-.154-.854-.461-1.123-.308-.269-.735-.403-1.281-.403Z" fill="#FFDE15"/></g><defs><clipPath id="a"><path fill="#fff" d="M0 0h59v20H0z"/></clipPath></defs></svg>