<svg class="color-immutable" width="59" height="20" fill="none" xmlns="http://www.w3.org/2000/svg"><path fill-rule="evenodd" clip-rule="evenodd" d="M2 0a2 2 0 0 0-2 2v16a2 2 0 0 0 2 2h55a2 2 0 0 0 2-2V2a2 2 0 0 0-2-2H2Z" fill="#000"/><path d="M4.186 11.949c-.032 2.86 2.365 4.127 4.923 4.127 3.142 0 4.81-1.593 4.81-3.721 0-2.632-2.591-3.168-3.433-3.38-2.899-.747-3.45-.86-3.45-1.754 0-.975.94-1.317 1.75-1.317 1.214 0 2.202.358 2.283 1.755h2.461c0-2.68-2.218-3.737-4.631-3.737-2.09 0-4.324 1.137-4.324 3.51 0 2.177 1.733 2.843 3.45 3.298 1.7.455 3.432.666 3.432 1.918 0 1.186-1.36 1.446-2.25 1.446-1.36 0-2.56-.602-2.56-2.145h-2.46Zm11.123 3.85h2.38V8.034h.033l4.81 7.767h2.542V4.198h-2.38v7.783h-.033l-4.826-7.783H15.31V15.8ZM39.485 13.743v2.056h-8.301c0-.627.1-1.226.303-1.795.202-.57.488-1.06.855-1.471.284-.317.616-.625.998-.926.38-.3 1.139-.851 2.274-1.653.552-.385.938-.744 1.159-1.076.22-.332.331-.717.331-1.155 0-.506-.149-.916-.445-1.23-.297-.314-.688-.47-1.171-.47-1.188 0-1.8.857-1.837 2.57h-2.215V8.34c0-1.402.391-2.489 1.174-3.259.763-.748 1.748-1.123 2.957-1.123 1.072 0 1.968.306 2.688.918.783.664 1.174 1.558 1.174 2.681 0 .981-.312 1.825-.938 2.531a4.436 4.436 0 0 1-.575.558c-.179.14-.65.476-1.411 1.009-.726.506-1.245.893-1.557 1.162a6.226 6.226 0 0 0-.871.926h5.408ZM44.365 3.958c.877 0 1.65.269 2.317.807.663.538 1.144 1.366 1.443 2.484.226.854.34 1.782.34 2.784 0 1.661-.295 3.027-.884 4.098-.347.622-.8 1.102-1.36 1.44a3.557 3.557 0 0 1-1.872.505c-.94 0-1.745-.284-2.412-.854-1.188-1.012-1.782-2.742-1.782-5.189 0-1.74.31-3.138.93-4.192a3.754 3.754 0 0 1 1.384-1.393 3.743 3.743 0 0 1 1.896-.49Zm-.087 1.954c-.757 0-1.272.438-1.545 1.313-.216.696-.323 1.672-.323 2.927 0 1.107.11 1.996.33 2.665.285.87.81 1.306 1.578 1.306.635 0 1.108-.338 1.419-1.013.31-.675.465-1.706.465-3.093 0-1.181-.11-2.112-.331-2.792-.284-.875-.815-1.313-1.593-1.313Z" fill="#FFDE15"/></svg>