<svg class="color-immutable" width="59" height="20" viewBox="0 0 59 20" fill="none" xmlns="http://www.w3.org/2000/svg"><g clip-path="url(#a)"><path fill-rule="evenodd" clip-rule="evenodd" d="M1.8 0a2 2 0 0 0-2 2v16a2 2 0 0 0 2 2h55a2 2 0 0 0 2-2V2a2 2 0 0 0-2-2h-55Z" fill="#000"/><path d="M4.186 11.949c-.032 2.86 2.364 4.127 4.923 4.127 3.142 0 4.81-1.593 4.81-3.721 0-2.632-2.592-3.168-3.434-3.38-2.898-.747-3.449-.86-3.449-1.754 0-.975.94-1.317 1.75-1.317 1.214 0 2.201.358 2.282 1.755h2.462c0-2.68-2.219-3.737-4.632-3.737-2.089 0-4.323 1.137-4.323 3.51 0 2.177 1.732 2.843 3.449 3.298 1.7.455 3.433.666 3.433 1.918 0 1.186-1.36 1.446-2.25 1.446-1.361 0-2.56-.602-2.56-2.145h-2.46Zm11.123 3.85h2.38V8.034h.032l4.81 7.767h2.542V4.198h-2.38v7.783h-.033l-4.825-7.783h-2.526V15.8ZM31.428 7.897c.026-.949.26-1.745.701-2.389.715-1.033 1.79-1.55 3.225-1.55 1.103 0 1.994.282 2.672.846.73.612 1.096 1.403 1.096 2.373 0 .58-.143 1.08-.43 1.5-.286.419-.674.702-1.163.85.62.142 1.11.459 1.47.949.36.49.54 1.084.54 1.78 0 1.144-.42 2.08-1.26 2.808-.779.675-1.761 1.012-2.949 1.012-1.288 0-2.309-.371-3.063-1.115s-1.131-1.748-1.131-3.014v-.15h2.215c0 .712.169 1.262.505 1.65.336.387.812.58 1.427.58s1.088-.181 1.419-.545c.305-.343.457-.752.457-1.226 0-.57-.194-1.02-.583-1.353-.321-.274-.815-.411-1.482-.411-.19 0-.376.01-.56.031v-1.7c.136.01.268.016.394.016 1.324 0 1.987-.493 1.987-1.48 0-.432-.145-.781-.434-1.048-.29-.266-.67-.4-1.143-.4-.541 0-.96.17-1.253.507-.295.338-.453.83-.473 1.48h-2.184Z" fill="#FFDE15"/></g><defs><clipPath id="a"><path fill="#fff" d="M0 0h59v20H0z"/></clipPath></defs></svg>