<svg width="59" height="20" fill="none" xmlns="http://www.w3.org/2000/svg"><g clip-path="url(#a)"><path fill-rule="evenodd" clip-rule="evenodd" d="M2 0a2 2 0 0 0-2 2v16a2 2 0 0 0 2 2h55a2 2 0 0 0 2-2V2a2 2 0 0 0-2-2H2Z" fill="#000"/><path d="M4.186 11.949c-.032 2.86 2.364 4.127 4.923 4.127 3.142 0 4.81-1.593 4.81-3.721 0-2.632-2.592-3.168-3.434-3.38-2.898-.747-3.449-.86-3.449-1.754 0-.975.94-1.317 1.75-1.317 1.214 0 2.201.358 2.282 1.755h2.462c0-2.68-2.219-3.737-4.632-3.737-2.089 0-4.323 1.137-4.323 3.51 0 2.177 1.732 2.843 3.449 3.298 1.7.455 3.433.666 3.433 1.918 0 1.186-1.36 1.446-2.25 1.446-1.361 0-2.56-.602-2.56-2.145h-2.46Zm11.123 3.85h2.38V8.034h.032l4.81 7.767h2.542V4.198h-2.38v7.783h-.033l-4.825-7.783h-2.526V15.8ZM39.587 11.204v1.954h-1.45V15.8H35.89v-2.643h-4.81V10.99l4.928-6.755h2.128v6.969h1.45Zm-3.65.023V6.924l-2.964 4.303h2.964Z" fill="#FFDE15"/></g><defs><clipPath id="a"><path fill="#fff" d="M0 0h59v20H0z"/></clipPath></defs></svg>