<svg class="color-immutable" width="59" height="20" viewBox="0 0 59 20" fill="none" xmlns="http://www.w3.org/2000/svg"><g clip-path="url(#a)"><path fill-rule="evenodd" clip-rule="evenodd" d="M2.2 0a2 2 0 0 0-2 2v16a2 2 0 0 0 2 2h55a2 2 0 0 0 2-2V2a2 2 0 0 0-2-2h-55Z" fill="#000"/><path d="M4.186 11.949c-.032 2.86 2.364 4.127 4.923 4.127 3.142 0 4.81-1.593 4.81-3.721 0-2.632-2.592-3.168-3.434-3.38-2.898-.747-3.449-.86-3.449-1.754 0-.975.94-1.317 1.75-1.317 1.214 0 2.201.358 2.282 1.755h2.462c0-2.68-2.219-3.737-4.632-3.737-2.089 0-4.323 1.137-4.323 3.51 0 2.177 1.732 2.843 3.449 3.298 1.7.455 3.433.666 3.433 1.918 0 1.186-1.36 1.446-2.25 1.446-1.361 0-2.56-.602-2.56-2.145h-2.46Zm11.123 3.85h2.38V8.034h.032l4.81 7.767h2.542V4.198h-2.38v7.783h-.033l-4.825-7.783h-2.526V15.8ZM38.91 4.235V6.29h-4.644l-.497 2.603c.557-.59 1.27-.886 2.137-.886.85 0 1.592.23 2.223.688.935.691 1.403 1.74 1.403 3.148 0 1.382-.5 2.476-1.498 3.283-.778.633-1.708.95-2.79.95-1.22 0-2.2-.329-2.941-.986-.741-.656-1.133-1.543-1.175-2.661h2.263a1.9 1.9 0 0 0 .394 1.036c.352.448.84.672 1.466.672.605 0 1.083-.218 1.435-.656.342-.427.512-.947.512-1.558 0-.665-.178-1.196-.536-1.594-.357-.398-.833-.598-1.427-.598-.725 0-1.29.328-1.694.981l-2.058-.031 1.096-6.447h6.33Z" fill="#FFDE15"/></g><defs><clipPath id="a"><path fill="#fff" d="M0 0h59v20H0z"/></clipPath></defs></svg>