<svg width="59" height="20" fill="none" xmlns="http://www.w3.org/2000/svg"><g clip-path="url(#a)"><path fill-rule="evenodd" clip-rule="evenodd" d="M2.4 0a2 2 0 0 0-2 2v16a2 2 0 0 0 2 2h55a2 2 0 0 0 2-2V2a2 2 0 0 0-2-2h-55Z" fill="#000"/><path d="M4.186 11.949c-.032 2.86 2.364 4.127 4.923 4.127 3.142 0 4.81-1.593 4.81-3.721 0-2.632-2.592-3.168-3.434-3.38-2.898-.747-3.449-.86-3.449-1.754 0-.975.94-1.317 1.75-1.317 1.214 0 2.201.358 2.282 1.755h2.462c0-2.68-2.219-3.737-4.632-3.737-2.089 0-4.323 1.137-4.323 3.51 0 2.177 1.732 2.843 3.449 3.298 1.7.455 3.433.666 3.433 1.918 0 1.186-1.36 1.446-2.25 1.446-1.361 0-2.56-.602-2.56-2.145h-2.46Zm11.123 3.85h2.38V8.034h.032l4.81 7.767h2.542V4.198h-2.38v7.783h-.033l-4.825-7.783h-2.526V15.8ZM39.288 7.122h-2.192c-.205-.891-.71-1.337-1.514-1.337-.851 0-1.456.525-1.813 1.574-.147.428-.265 1.074-.355 1.938.347-.469.716-.806 1.108-1.012.391-.206.863-.309 1.415-.309 1.083 0 1.952.385 2.61 1.155.625.728.938 1.64.938 2.737 0 1.303-.42 2.35-1.262 3.14-.757.712-1.666 1.068-2.727 1.068-1.362 0-2.42-.515-3.177-1.546-.757-1.031-1.136-2.47-1.136-4.315 0-1.972.405-3.517 1.214-4.635.783-1.081 1.853-1.622 3.209-1.622 1.277 0 2.255.43 2.932 1.29.39.495.639 1.12.75 1.874Zm-3.903 2.65c-.552 0-.99.232-1.316.696-.295.411-.442.902-.442 1.471 0 .565.15 1.058.45 1.48.325.469.772.704 1.34.704.551 0 .995-.225 1.332-.673.315-.422.473-.92.473-1.495 0-.564-.142-1.047-.426-1.447-.346-.49-.817-.736-1.41-.736Z" fill="#FFDE15"/></g><defs><clipPath id="a"><path fill="#fff" d="M0 0h59v20H0z"/></clipPath></defs></svg>