<svg class="color-immutable" width="59" height="20" viewBox="0 0 59 20" fill="none" xmlns="http://www.w3.org/2000/svg"><g clip-path="url(#a)"><path fill-rule="evenodd" clip-rule="evenodd" d="M2 0a2 2 0 0 0-2 2v16a2 2 0 0 0 2 2h55a2 2 0 0 0 2-2V2a2 2 0 0 0-2-2H2Z" fill="#000"/><path d="M4.186 11.949c-.032 2.86 2.364 4.127 4.923 4.127 3.142 0 4.81-1.593 4.81-3.721 0-2.632-2.592-3.168-3.434-3.38-2.898-.747-3.449-.86-3.449-1.754 0-.975.94-1.317 1.75-1.317 1.214 0 2.201.358 2.282 1.755h2.462c0-2.68-2.219-3.737-4.632-3.737-2.089 0-4.323 1.137-4.323 3.51 0 2.177 1.732 2.843 3.449 3.298 1.7.455 3.433.666 3.433 1.918 0 1.186-1.36 1.446-2.25 1.446-1.361 0-2.56-.602-2.56-2.145h-2.46Zm11.123 3.85h2.38V8.034h.032l4.81 7.767h2.542V4.198h-2.38v7.783h-.033l-4.825-7.783h-2.526V15.8ZM31.38 12.896h2.176c.179.897.696 1.345 1.553 1.345.484 0 .876-.165 1.179-.494.302-.33.534-.843.698-1.539.105-.443.18-.946.228-1.51-.352.495-.713.847-1.084 1.055-.37.209-.821.313-1.352.313-.846 0-1.582-.248-2.207-.744A3.504 3.504 0 0 1 31.55 9.97a4.415 4.415 0 0 1-.367-1.804c0-1.302.444-2.357 1.333-3.164.762-.696 1.676-1.044 2.743-1.044a3.83 3.83 0 0 1 1.821.443 3.955 3.955 0 0 1 1.403 1.258c.668.965 1.002 2.32 1.002 4.066 0 1.613-.295 2.99-.883 4.129-.768 1.482-1.93 2.222-3.485 2.222-1.035 0-1.89-.287-2.566-.862-.675-.575-1.066-1.347-1.17-2.318Zm3.832-6.984c-.494 0-.912.203-1.254.609-.341.411-.512.933-.512 1.566 0 .512.123.965.37 1.36.337.544.81.815 1.42.815.551 0 .993-.221 1.324-.664.31-.417.465-.912.465-1.487 0-.607-.16-1.12-.48-1.543a1.6 1.6 0 0 0-1.333-.656Z" fill="#FFDE15"/></g><defs><clipPath id="a"><path fill="#fff" d="M0 0h59v20H0z"/></clipPath></defs></svg>