<svg class="color-immutable" width="59" height="20" fill="none" xmlns="http://www.w3.org/2000/svg"><path fill-rule="evenodd" clip-rule="evenodd" d="M2 0a2 2 0 0 0-2 2v16a2 2 0 0 0 2 2h55a2 2 0 0 0 2-2V2a2 2 0 0 0-2-2H2Z" fill="#000"/><path fill-rule="evenodd" clip-rule="evenodd" d="M9.109 16.076c-2.559 0-4.955-1.268-4.923-4.127h2.462c0 1.543 1.198 2.145 2.558 2.145.89 0 2.251-.26 2.251-1.446 0-1.068-1.262-1.379-2.689-1.73-.245-.06-.495-.121-.744-.188-1.717-.455-3.45-1.121-3.45-3.298 0-2.373 2.235-3.51 4.324-3.51 2.413 0 4.632 1.056 4.632 3.737h-2.462C10.988 6.262 10 5.904 8.785 5.904c-.81 0-1.749.342-1.749 1.317 0 .866.518 1 3.191 1.688l.258.066.101.025c.93.23 3.332.82 3.332 3.355 0 2.128-1.667 3.72-4.81 3.72Zm8.58-.276h-2.38V4.198h2.526l4.825 7.783h.033V4.198h2.38V15.8h-2.542l-4.81-7.767h-.032V15.8Z" fill="#FFDE15"/></svg>