<svg xmlns="http://www.w3.org/2000/svg" width="48" height="48" fill="none" viewBox="0 0 48 48"><path fill="#000" fill-rule="evenodd" d="M11 12.5a1.5 1.5 0 1 1 3.001.001A1.5 1.5 0 0 1 11 12.5m1.5-2.5a2.5 2.5 0 1 0 .002 5.002A2.5 2.5 0 0 0 12.5 10m11 1a1.5 1.5 0 1 0 .001 3.001A1.5 1.5 0 0 0 23.5 11M21 12.5a2.5 2.5 0 1 1 5.002.002A2.5 2.5 0 0 1 21 12.5M35.5 11a1.5 1.5 0 1 0 .001 3.001A1.5 1.5 0 0 0 35.5 11M33 12.5a2.5 2.5 0 1 1 5.002.002A2.5 2.5 0 0 1 33 12.5M33 38v1.999h1V38h3v1.999h1V38h2.053l-.055-.55-1-9.999-.045-.45h-6.906l-.044.45-1 10-.055.549H33m-.924-21h6.848l.07.418 2 12-.987.164L38.077 18h-5.153l-1.93 11.582-.987-.164 2-12zm-.023 20 .9-8.999h5.094l.9 8.999zM22 39.999V28.001h3v11.998h1V28.001H27V29.5h1V17h-9v12.5h1v-1.499h1v11.998zM27 18v9.001h-7V18zM11 28.001v11.998h-1V28.001H9V29.5H8V17h9v12.5h-1v-1.499h-1v11.998h-1V28.001zm5-1V18H9v9.001z" clip-rule="evenodd"/></svg>