<svg xmlns="http://www.w3.org/2000/svg" width="24" height="24" fill="none" viewBox="0 0 24 24"><path fill="#000" d="M5 4h6V2h1v2h2v1h-2v2h2v1h-2v2h2v1h-2v1h-1v-1H5v2h5v1H5v2h3v1H5v2h1v1H5v2H4v-2H2v-1h2v-2H2v-1h2v-2H2v-1h2v-2H2v-1h2V8H2V7h2V5H2V4h2V2h1zm10.354 7.356 2.29 2.29.353.353-.353.353-7.5 7.502-.147.146H7v-2.997l8-8zM8 19.417V21h1.583l6.999-7.001L15 12.416zM19.353 7.355l2.29 2.282.354.352-.352.355-2.29 2.299-.355-.354v.001l.355.353-.354.354-.355-.353L16.003 10l2.643-2.644.353-.353zM17.417 10l1.581 1.581 1.584-1.59-1.581-1.576zM5 10h6V8H5zm0-3h6V5H5z"/></svg>