<svg xmlns="http://www.w3.org/2000/svg" width="36" height="36" fill="none" viewBox="0 0 36 36"><path fill="#000" d="M7.25 6.25h9.5V3h1v3.25H21v1h-3.25v3.5H21v1h-3.25v3.5H21v1h-3.25V18h-1v-1.75h-9.5v3.5H15v1H7.25v3.5H12v1H7.25v3.5H9v1H7.25V33h-1v-3.25H3v-1h3.25v-3.5H3v-1h3.25v-3.5H3v-1h3.25v-3.5H3v-1h3.25v-3.5H3v-1h3.25v-3.5H3v-1h3.25V3h1zm15.604 10.96 3.434 3.435.355.353-.354.354-11.25 11.251-.354-.354v.001l.354.353-.146.147H10.75v-4.143l.146-.145L22.5 16.858zM11.75 29.024v2.727h2.727l10.75-10.752-2.727-2.727zM28.853 11.21l3.435 3.422.355.352-.354.355-3.434 3.448-.354.356-3.79-3.79-.354-.353.355-.354 3.435-3.435.352-.353zm-3.082 3.789 2.728 2.728 2.729-2.74L28.5 12.27zM7.25 15.25h9.5v-3.5h-9.5zm0-4.5h9.5v-3.5h-9.5z"/></svg>