<svg width="24" height="24" fill="none" xmlns="http://www.w3.org/2000/svg"><path fill-rule="evenodd" clip-rule="evenodd" d="m22.855 3.807-1.86 1.93-3.591 3.73.05.1c.19.386.418.815.654 1.26l.001.002.328.62c.342.652.676 1.312.888 1.848.105.265.191.527.227.757.018.114.028.245.009.376a.736.736 0 0 1-.22.435c-.065.06-.126.12-.188.18l-.004.005c-.062.06-.126.122-.189.18a2.04 2.04 0 0 1-.442.326c-.172.089-.369.14-.59.124a1.053 1.053 0 0 1-.385.487.914.914 0 0 1-.762.123c-.252-.069-.47-.234-.65-.45a9.787 9.787 0 0 0-2.831-1.882l.4-.916a10.788 10.788 0 0 1 3.146 2.097l.023.023.021.026a.62.62 0 0 0 .113.113.35.35 0 0 0 .009-.193l-.262-1.182 1.02.653c.13.083.2.1.227.103.016.002.03.002.065-.016.048-.024.114-.072.22-.17.052-.048.106-.1.17-.163l.006-.006c.035-.034.07-.069.109-.105l-.003-.013a2.807 2.807 0 0 0-.169-.544c-.19-.48-.5-1.097-.844-1.752l-.318-.603c-.24-.451-.478-.9-.675-1.297a11.594 11.594 0 0 1-.367-.8c-.089-.219-.169-.454-.188-.658a1.524 1.524 0 0 0-.752-1.121l-.41-.235.212-.423.546-1.093c-.287.115-.526.29-.652.54l-.189.378-.404-.123A6.877 6.877 0 0 0 7.83 7.877l-.009.007c-1.442 1.206-2.36 2.986-2.938 4.93-.525 1.768-.757 3.635-.857 5.248 3.372.43 6.073.876 9.356 1.651-.699-1.075-1.247-2.002-1.636-3.034C11.228 15.31 11 13.783 11 11.5h1c0 2.217.222 3.61.68 4.826.464 1.23 1.178 2.305 2.236 3.897l.714 1.075-1.252-.313c-3.975-.994-6.955-1.49-10.94-1.989l-.46-.057.022-.463c.086-1.751.315-3.899.923-5.947.607-2.042 1.603-4.029 3.252-5.41a7.877 7.877 0 0 1 7.108-1.698c.362-.442.871-.664 1.267-.777a3.9 3.9 0 0 1 .922-.144H16.499V5v-.5h.81l-.362.724-.81 1.618c.023.019.045.038.066.058l4.222-1.963 2.43-1.13Zm-4.439 3.166-1.419 1.474-.001-.01a2.524 2.524 0 0 0-.2-.71l1.62-.754ZM14 8a1 1 0 1 0 0 2 1 1 0 0 0 0-2Z" fill="#000"/></svg>