<svg width="36" height="36" viewBox="0 0 36 36" fill="none" xmlns="http://www.w3.org/2000/svg"><path fill-rule="evenodd" clip-rule="evenodd" d="M4.38 3.25h-.377l-.104.362a16.73 16.73 0 0 0-.65 4.633 17.585 17.585 0 0 0 8.492 15.433l.517-.856A16.586 16.586 0 0 1 4.25 8.261v-.012A15.73 15.73 0 0 1 4.76 4.25H5.25c5.002 0 9.487 1.573 12.364 5.068l.772-.636C15.262 4.887 10.447 3.25 5.25 3.25H4.38ZM31.8 6.676l-.066-.442-.447.016c-5.157.19-8.87 1.543-11.516 3.522-2.646 1.98-4.185 4.558-5.043 7.134-.856 2.573-1.037 5.151-.966 7.16.035 1.007.134 1.876.245 2.538.056.33.115.613.172.837.026.101.053.198.082.286a68.983 68.983 0 0 0-2.711 5.055l.9.436c.822-1.7 1.714-3.36 2.671-4.98 5.002-.231 8.597-1.565 11.16-3.503 2.612-1.977 4.11-4.551 4.94-7.123 1.563-4.847.771-9.744.601-10.795l-.022-.14ZM15.747 27.2c4.487-.306 7.672-1.555 9.93-3.263 2.416-1.827 3.81-4.212 4.592-6.632 1.372-4.255.835-8.573.612-10.036-4.763.243-8.134 1.525-10.511 3.304-2.451 1.834-3.886 4.225-4.693 6.65-.809 2.428-.984 4.88-.916 6.808.034.963.128 1.789.232 2.407l.01.062a68.992 68.992 0 0 1 12.412-14.871l.67.742a67.987 67.987 0 0 0-12.338 14.83ZM8.515 8.576a25.594 25.594 0 0 1 6.12 5.355l-.77.638a24.597 24.597 0 0 0-5.88-5.145l.53-.848Z" fill="#000"/></svg>