<svg width="48" height="48" viewBox="0 0 48 48" fill="none" xmlns="http://www.w3.org/2000/svg"><path fill-rule="evenodd" clip-rule="evenodd" d="M24.501 11.499v-6h-1v6h1Zm-12.876-1.082 4.243 4.243-.707.707-4.243-4.243.707-.707ZM5.999 22.999h6v1h-6v-1Zm4.077 14H14V24c0-5.521 4.477-10 10-10s10 4.479 10 10v13h3.924l.07.418 1 6 .096.583H8.91l.097-.583 1-6 .07-.417ZM33 37V24a9 9 0 0 0-18 0v13h6v-7a3 3 0 0 1 6 .002V37h6Zm-11-7v7h4V30.002A2 2 0 1 0 22 30Zm-11.076 8-.834 5h27.82l-.834-5H10.924ZM24 17a7 7 0 0 0-7 7h1a6 6 0 0 1 6-6v-1Zm18.001 7.002h-6v-1h6v1Zm-9.161-8.633 4.243-4.242-.707-.707-4.243 4.242.707.707Z" fill="#000"/></svg>